<svg width="126" height="30" viewBox="0 0 126 30" fill="none" xmlns="http://www.w3.org/2000/svg">
<path fill-rule="evenodd" clip-rule="evenodd" d="M3.88387 12.3137L5.59325 14.0244C6.08894 14.5205 6.08894 15.3325 5.59325 15.8286L3.88387 17.5393C3.38818 18.0354 2.57684 18.0354 2.08114 17.5393L0.371772 15.8286C-0.123924 15.3325 -0.123924 14.5205 0.371772 14.0244L2.08114 12.3137C2.57684 11.8176 3.38707 11.8176 3.88387 12.3137Z" fill="#06A39C"/>
<path fill-rule="evenodd" clip-rule="evenodd" d="M3.88387 22.2555L5.59325 23.9662C6.08894 24.4623 6.08894 25.2742 5.59325 25.7703L3.88387 27.481C3.38818 27.9771 2.57684 27.9771 2.08114 27.481L0.371772 25.7703C-0.123924 25.2742 -0.123924 24.4623 0.371772 23.9662L2.08114 22.2555C2.57684 21.7583 3.38707 21.7583 3.88387 22.2555Z" fill="#06A39C"/>
<path fill-rule="evenodd" clip-rule="evenodd" d="M13.8165 2.37206L15.5259 4.08277C16.0216 4.57885 16.0216 5.39083 15.5259 5.88692L13.8165 7.59763C13.3208 8.09371 12.5095 8.09371 12.0138 7.59763L10.3044 5.88692C9.80869 5.39083 9.80869 4.57885 10.3044 4.08277L12.0138 2.37206C12.5106 1.87598 13.3208 1.87598 13.8165 2.37206Z" fill="#30D2A3"/>
<path fill-rule="evenodd" clip-rule="evenodd" d="M13.8165 12.3137L15.5259 14.0244C16.0216 14.5205 16.0216 15.3325 15.5259 15.8286L13.8165 17.5393C13.3208 18.0354 12.5095 18.0354 12.0138 17.5393L10.3044 15.8286C9.80869 15.3325 9.80869 14.5205 10.3044 14.0244L12.0138 12.3137C12.5106 11.8176 13.3208 11.8176 13.8165 12.3137Z" fill="#30D2A3"/>
<path fill-rule="evenodd" clip-rule="evenodd" d="M13.8165 22.2555L15.5259 23.9662C16.0216 24.4623 16.0216 25.2742 15.5259 25.7703L13.8165 27.481C13.3208 27.9771 12.5095 27.9771 12.0138 27.481L10.3044 25.7703C9.80869 25.2742 9.80869 24.4623 10.3044 23.9662L12.0138 22.2555C12.5106 21.7583 13.3208 21.7583 13.8165 22.2555Z" fill="#06A39C"/>
<path fill-rule="evenodd" clip-rule="evenodd" d="M23.7511 2.37206L25.4604 4.08277C25.9561 4.57885 25.9561 5.39083 25.4604 5.88692L23.7511 7.59763C23.2554 8.09371 22.444 8.09371 21.9483 7.59763L20.239 5.88692C19.7433 5.39083 19.7433 4.57885 20.239 4.08277L21.9483 2.37206C22.444 1.87598 23.2554 1.87598 23.7511 2.37206Z" fill="#30D2A3"/>
<path fill-rule="evenodd" clip-rule="evenodd" d="M23.7511 12.3137L25.4604 14.0244C25.9561 14.5205 25.9561 15.3325 25.4604 15.8286L23.7511 17.5393C23.2554 18.0354 22.444 18.0354 21.9483 17.5393L20.239 15.8286C19.7433 15.3325 19.7433 14.5205 20.239 14.0244L21.9483 12.3137C22.444 11.8176 23.2554 11.8176 23.7511 12.3137Z" fill="#30D2A3"/>
<path fill-rule="evenodd" clip-rule="evenodd" d="M23.7511 22.2555L25.4604 23.9662C25.9561 24.4623 25.9561 25.2742 25.4604 25.7703L23.7511 27.481C23.2554 27.9771 22.444 27.9771 21.9483 27.481L20.239 25.7703C19.7433 25.2742 19.7433 24.4623 20.239 23.9662L21.9483 22.2555C22.444 21.7583 23.2554 21.7583 23.7511 22.2555Z" fill="#06A39C"/>
<path fill-rule="evenodd" clip-rule="evenodd" d="M3.88387 2.37206L5.59325 4.08277C6.08894 4.57885 6.08894 5.39083 5.59325 5.88692L3.88387 7.59763C3.38818 8.09371 2.57684 8.09371 2.08114 7.59763L0.371772 5.88692C-0.123924 5.39083 -0.123924 4.57885 0.371772 4.08277L2.08114 2.37206C2.57684 1.87598 3.38707 1.87598 3.88387 2.37206Z" fill="#30D2A3"/>
<path fill-rule="evenodd" clip-rule="evenodd" d="M40.7218 14.9681L41.3064 16.4419C41.3764 16.6288 41.5164 16.6989 41.7031 16.6288L43.3625 16.0904C43.6192 16.0204 43.6426 15.8101 43.5726 15.6222L43.2691 14.64C43.0124 13.798 42.9657 12.9326 42.9657 11.9972V7.92732C42.9657 4.76952 40.465 3.53042 37.7076 3.53042C35.3702 3.53042 33.782 4.16221 32.216 5.30787C32.0526 5.42466 32.006 5.65824 32.1693 5.84621L33.0807 7.13202C33.1974 7.29553 33.4541 7.31889 33.642 7.2021C34.9512 6.38345 36.0026 6.0798 37.7087 6.0798C39.1113 6.0798 40.2561 6.52472 40.2561 7.62366V7.90396L36.1427 8.44231C33.2685 8.81604 31.5625 10.3132 31.5625 12.6757C31.5625 15.0616 33.4319 16.6521 36.1193 16.6521C37.9888 16.6521 39.4614 16.0671 40.6062 14.9681H40.7218ZM40.2538 12.3253C39.4358 13.4243 38.1744 14.1028 36.3983 14.1028C34.9257 14.1028 34.2722 13.4943 34.2722 12.5355C34.2722 11.7169 34.8568 11.0851 36.1416 10.8749L40.255 10.1964V12.3253H40.2538ZM46.2833 0C46.0733 0 45.9566 0.116791 45.9566 0.327015V16.1372C45.9566 16.3474 46.0733 16.4642 46.2833 16.4642H47.8727C48.0594 16.4642 48.1761 16.3707 48.2228 16.1839L48.4095 15.3419L48.5729 15.3185C49.5309 16.2539 50.9102 16.6521 52.335 16.6521C56.0739 16.6521 58.9024 14.0093 58.9024 10.0807C58.9024 6.15209 56.145 3.53264 52.335 3.53264C50.9324 3.53264 49.7643 3.88302 48.6662 4.7951V0.328128C48.6662 0.117904 48.5495 0.00111338 48.3395 0.00111338L46.2833 0ZM48.6673 7.62477C49.6721 6.5959 50.6768 6.10427 52.3361 6.10427C54.5568 6.10427 56.215 7.64813 56.215 10.0807C56.215 12.5367 54.5557 14.0805 52.3361 14.0805C50.7701 14.0805 49.6721 13.5889 48.6673 12.4899V7.62477ZM61.0997 3.7184C60.8897 3.7184 60.773 3.83519 60.773 4.04541V11.0618C60.773 14.9437 62.8991 16.651 66.0778 16.651C67.4804 16.651 68.7652 16.2539 69.8633 15.2473H70.0034L70.2134 16.1828C70.2601 16.3696 70.3768 16.4631 70.5869 16.4631H72.2462C72.4563 16.4631 72.573 16.3463 72.573 16.136V4.04652C72.573 3.8363 72.4563 3.71951 72.2462 3.71951H70.1901C69.98 3.71951 69.8633 3.8363 69.8633 4.04652V12.4432C69.022 13.5422 67.666 14.0805 66.3579 14.0805C64.3951 14.0805 63.4837 13.1217 63.4837 10.8994V4.04652C63.4837 3.8363 63.367 3.71951 63.157 3.71951H61.0997V3.7184ZM76.3596 3.76512L74.8403 3.90527C74.6536 3.92863 74.5602 4.04541 74.5602 4.20892V5.91629C74.5602 6.12651 74.6769 6.2433 74.887 6.2433H76.3363V12.3709C76.3363 14.8736 77.551 16.651 80.3563 16.651C81.5477 16.651 82.4358 16.3941 83.3004 15.8324C83.5105 15.7156 83.5572 15.5754 83.4638 15.3641L82.8325 13.867C82.7625 13.7035 82.6225 13.61 82.3646 13.7268C81.8734 13.9838 81.3132 14.1005 80.6819 14.1005C79.6772 14.1005 79.0459 13.4921 79.0459 12.2997V6.24219H82.5047C82.7147 6.24219 82.8314 6.1254 82.8314 5.91517V4.0443C82.8314 3.83408 82.7147 3.71729 82.5047 3.71729H79.0459V1.23798C79.0459 1.02776 78.8825 0.910968 78.7191 0.910968H76.9442C76.7575 0.910968 76.6408 1.02776 76.6174 1.23798L76.3596 3.76512ZM95.8973 12.7936C95.7806 12.6535 95.6406 12.6534 95.5239 12.7702C94.3091 13.7758 93.0465 14.1039 91.4572 14.1039C89.4011 14.1039 87.9518 12.9816 87.5072 11.3676H97.5089C97.6956 11.3676 97.789 11.2508 97.789 11.0406V10.1052C97.789 6.29336 95.1249 3.53264 91.3394 3.53264C87.5305 3.53264 84.6786 6.29225 84.6786 10.1052C84.6786 13.8703 87.4594 16.6533 91.4561 16.6533C93.3255 16.6533 95.3116 16.1149 96.9943 14.6889C97.111 14.5722 97.1344 14.432 97.0176 14.3152L95.8973 12.7936ZM91.3394 6.08091C93.1854 6.08091 94.8448 7.20322 95.0315 8.84051H87.4827C87.8573 7.22657 89.4466 6.08091 91.3394 6.08091ZM106.249 3.53153C102.51 3.53153 99.6584 6.29113 99.6584 10.0562C99.6584 13.8214 102.509 16.6521 106.249 16.6521C108.586 16.6521 110.619 15.6233 111.811 13.659C111.904 13.5422 111.881 13.402 111.764 13.2852L110.291 12.1162C110.151 11.9994 110.035 11.9994 109.918 12.1162C108.96 13.5199 107.838 14.0805 106.249 14.0805C103.935 14.0805 102.37 12.3732 102.37 10.0574C102.37 7.74157 103.913 6.10427 106.249 6.10427C107.838 6.10427 108.89 6.68934 109.848 7.99851C109.941 8.1153 110.128 8.20873 110.291 8.04522L111.764 6.92291C111.881 6.82948 111.904 6.71269 111.811 6.54918C110.69 4.63048 108.446 3.53153 106.249 3.53153ZM114.429 0C114.219 0 114.102 0.116791 114.102 0.327015V16.1372C114.102 16.3474 114.219 16.4642 114.429 16.4642H116.485C116.695 16.4642 116.812 16.3474 116.812 16.1372V7.57805C117.747 6.54918 118.845 6.10427 120.224 6.10427C122.094 6.10427 123.192 7.17985 123.192 9.42557V16.1383C123.192 16.3485 123.308 16.4653 123.518 16.4653H125.575C125.785 16.4653 125.901 16.3485 125.901 16.1383V9.33214C125.901 5.49696 123.517 3.53153 120.223 3.53153C118.914 3.53153 117.769 3.90526 116.811 4.81734V0.327015C116.811 0.116791 116.694 0 116.484 0H114.429Z" fill="#00094A"/>
<path d="M33.8048 28.0588C33.4477 28.0588 33.1043 28.0107 32.7747 27.9144C32.445 27.8125 32.1868 27.6851 32 27.5323L32.3297 26.8868C32.5219 27.0284 32.7554 27.1416 33.0302 27.2265C33.3049 27.3114 33.5823 27.3539 33.8625 27.3539C34.5548 27.3539 34.9009 27.1501 34.9009 26.7424C34.9009 26.6066 34.8542 26.499 34.7608 26.4197C34.6674 26.3405 34.5493 26.2838 34.4064 26.2499C34.2691 26.2102 34.0713 26.1678 33.8131 26.1225C33.4615 26.0659 33.173 26.0008 32.9477 25.9272C32.728 25.8536 32.5384 25.729 32.3791 25.5535C32.2198 25.378 32.1401 25.1317 32.1401 24.8146C32.1401 24.407 32.3049 24.0814 32.6346 23.838C32.9642 23.5889 33.4065 23.4643 33.9614 23.4643C34.2526 23.4643 34.5438 23.5011 34.835 23.5747C35.1262 23.6483 35.3652 23.7474 35.552 23.872L35.2141 24.5174C34.857 24.2796 34.4367 24.1607 33.9532 24.1607C33.618 24.1607 33.3626 24.2173 33.1867 24.3306C33.0109 24.4438 32.923 24.5938 32.923 24.7807C32.923 24.9279 32.9725 25.0439 33.0714 25.1289C33.1703 25.2138 33.2911 25.2761 33.434 25.3157C33.5823 25.3553 33.7884 25.4006 34.0521 25.4516C34.4037 25.5139 34.6867 25.5818 34.9009 25.6554C35.1207 25.7233 35.3075 25.8422 35.4613 26.0121C35.6152 26.1819 35.6921 26.4197 35.6921 26.7255C35.6921 27.1331 35.5218 27.4587 35.1811 27.7021C34.846 27.9399 34.3872 28.0588 33.8048 28.0588Z" fill="#00094A"/>
<path d="M38.5516 28.0588C38.1176 28.0588 37.7275 27.9597 37.3814 27.7616C37.0352 27.5634 36.7633 27.2916 36.5655 26.9463C36.3732 26.5952 36.277 26.1989 36.277 25.7573C36.277 25.3157 36.3732 24.9222 36.5655 24.5768C36.7633 24.2258 37.0352 23.9541 37.3814 23.7616C37.7275 23.5634 38.1176 23.4643 38.5516 23.4643C38.9857 23.4643 39.373 23.5634 39.7136 23.7616C40.0598 23.9541 40.329 24.2258 40.5213 24.5768C40.7191 24.9222 40.818 25.3157 40.818 25.7573C40.818 26.1989 40.7191 26.5952 40.5213 26.9463C40.329 27.2916 40.0598 27.5634 39.7136 27.7616C39.373 27.9597 38.9857 28.0588 38.5516 28.0588ZM38.5516 27.3454C38.8318 27.3454 39.0818 27.2803 39.3016 27.1501C39.5268 27.0142 39.7026 26.8274 39.829 26.5896C39.9554 26.3461 40.0186 26.0687 40.0186 25.7573C40.0186 25.4459 39.9554 25.1713 39.829 24.9335C39.7026 24.6901 39.5268 24.5032 39.3016 24.373C39.0818 24.2428 38.8318 24.1777 38.5516 24.1777C38.2714 24.1777 38.0187 24.2428 37.7934 24.373C37.5736 24.5032 37.3978 24.6901 37.266 24.9335C37.1396 25.1713 37.0764 25.4459 37.0764 25.7573C37.0764 26.0687 37.1396 26.3461 37.266 26.5896C37.3978 26.8274 37.5736 27.0142 37.7934 27.1501C38.0187 27.2803 38.2714 27.3454 38.5516 27.3454Z" fill="#00094A"/>
<path d="M43.5109 22.3263C43.0384 22.3263 42.8022 22.5896 42.8022 23.1161V23.5068H44.0713V24.1777H42.8187V28.0078H42.0275V24.1777H41.2858V23.5068H42.0275V23.1076C42.0275 22.6603 42.1539 22.3065 42.4066 22.0461C42.6593 21.7856 43.0137 21.6554 43.4697 21.6554C43.6455 21.6554 43.8104 21.678 43.9642 21.7233C44.118 21.7686 44.2499 21.8337 44.3598 21.9187L44.1208 22.5386C43.9395 22.3971 43.7362 22.3263 43.5109 22.3263Z" fill="#00094A"/>
<path d="M47.2734 27.7446C47.158 27.8465 47.0152 27.9257 46.8448 27.9824C46.6745 28.0333 46.4987 28.0588 46.3174 28.0588C45.8779 28.0588 45.5372 27.9371 45.2955 27.6936C45.0537 27.4502 44.9329 27.102 44.9329 26.649V24.1777H44.1911V23.5068H44.9329V22.5216H45.724V23.5068H46.9767V24.1777H45.724V26.6151C45.724 26.8585 45.7817 27.0453 45.8971 27.1756C46.018 27.3058 46.1883 27.3709 46.408 27.3709C46.6498 27.3709 46.8558 27.3001 47.0261 27.1586L47.2734 27.7446Z" fill="#00094A"/>
<path d="M54.7589 23.5068L53.1271 28.0078H52.3689L51.108 24.5938L49.8306 28.0078H49.0724L47.4489 23.5068H48.1988L49.468 27.0906L50.7866 23.5068H51.4541L52.748 27.1076L54.0501 23.5068H54.7589Z" fill="#00094A"/>
<path d="M57.0155 23.4643C57.6198 23.4643 58.0813 23.6172 58.4 23.9229C58.7241 24.2286 58.8862 24.6844 58.8862 25.2902V28.0078H58.1363V27.4134C58.0044 27.6228 57.8149 27.7842 57.5676 27.8974C57.3259 28.005 57.0374 28.0588 56.7023 28.0588C56.2133 28.0588 55.8205 27.9371 55.5238 27.6936C55.2326 27.4502 55.087 27.1303 55.087 26.734C55.087 26.3376 55.2271 26.0206 55.5073 25.7828C55.7875 25.5393 56.2325 25.4176 56.8424 25.4176H58.0951V25.2562C58.0951 24.9052 57.9962 24.6363 57.7984 24.4495C57.6006 24.2626 57.3094 24.1692 56.9248 24.1692C56.6666 24.1692 56.4138 24.2145 56.1666 24.3051C55.9194 24.39 55.7106 24.5061 55.5403 24.6533L55.2106 24.0418C55.4359 23.855 55.7051 23.7134 56.0183 23.6172C56.3314 23.5153 56.6638 23.4643 57.0155 23.4643ZM56.8342 27.4303C57.1363 27.4303 57.3973 27.3624 57.6171 27.2265C57.8368 27.085 57.9962 26.8868 58.0951 26.632V26.0036H56.8754C56.2051 26.0036 55.8699 26.2357 55.8699 26.7C55.8699 26.9264 55.9551 27.1048 56.1254 27.235C56.2957 27.3652 56.532 27.4303 56.8342 27.4303Z" fill="#00094A"/>
<path d="M61.1085 24.2626C61.2459 24.0022 61.4492 23.804 61.7184 23.6681C61.9876 23.5323 62.3145 23.4643 62.6991 23.4643V24.2541C62.6551 24.2485 62.5947 24.2456 62.5178 24.2456C62.0892 24.2456 61.7514 24.3787 61.5041 24.6448C61.2624 24.9052 61.1415 25.2789 61.1415 25.7658V28.0078H60.3503V23.5068H61.1085V24.2626Z" fill="#00094A"/>
<path d="M67.5815 25.7828C67.5815 25.8451 67.576 25.9272 67.5651 26.0291H64.0213C64.0708 26.4254 64.2383 26.7453 64.524 26.9887C64.8152 27.2265 65.1751 27.3454 65.6036 27.3454C66.1256 27.3454 66.5459 27.1642 66.8645 26.8019L67.3013 27.3284C67.1035 27.5662 66.8563 27.7474 66.5596 27.872C66.2684 27.9965 65.9415 28.0588 65.5789 28.0588C65.1174 28.0588 64.7081 27.9625 64.351 27.77C63.9938 27.5719 63.7164 27.2973 63.5186 26.9463C63.3263 26.5952 63.2301 26.1989 63.2301 25.7573C63.2301 25.3214 63.3235 24.9279 63.5103 24.5768C63.7026 24.2258 63.9636 23.9541 64.2933 23.7616C64.6284 23.5634 65.0048 23.4643 65.4223 23.4643C65.8399 23.4643 66.2107 23.5634 66.5349 23.7616C66.8645 23.9541 67.12 24.2258 67.3013 24.5768C67.4881 24.9279 67.5815 25.3298 67.5815 25.7828ZM65.4223 24.1522C65.0432 24.1522 64.7246 24.2711 64.4663 24.5089C64.2136 24.7467 64.0653 25.0581 64.0213 25.4431H66.8233C66.7794 25.0637 66.6283 24.7552 66.3701 24.5174C66.1173 24.2739 65.8014 24.1522 65.4223 24.1522Z" fill="#00094A"/>
<path d="M75.014 21.7064V28.0078H74.2558V27.2945C74.08 27.5436 73.8575 27.7332 73.5883 27.8635C73.319 27.9937 73.0224 28.0588 72.6982 28.0588C72.2751 28.0588 71.896 27.9625 71.5609 27.77C71.2258 27.5775 70.962 27.3086 70.7697 26.9633C70.5829 26.6122 70.4895 26.2102 70.4895 25.7573C70.4895 25.3044 70.5829 24.9052 70.7697 24.5599C70.962 24.2145 71.2258 23.9456 71.5609 23.7531C71.896 23.5606 72.2751 23.4643 72.6982 23.4643C73.0114 23.4643 73.2998 23.5266 73.5635 23.6511C73.8273 23.77 74.047 23.9484 74.2228 24.1862V21.7064H75.014ZM72.7641 27.3454C73.0388 27.3454 73.2888 27.2803 73.5141 27.1501C73.7393 27.0142 73.9152 26.8274 74.0415 26.5896C74.1679 26.3461 74.2311 26.0687 74.2311 25.7573C74.2311 25.4459 74.1679 25.1713 74.0415 24.9335C73.9152 24.6901 73.7393 24.5032 73.5141 24.373C73.2888 24.2428 73.0388 24.1777 72.7641 24.1777C72.4839 24.1777 72.2312 24.2428 72.0059 24.373C71.7862 24.5032 71.6104 24.6901 71.4785 24.9335C71.3521 25.1713 71.2889 25.4459 71.2889 25.7573C71.2889 26.0687 71.3521 26.3461 71.4785 26.5896C71.6104 26.8274 71.7862 27.0142 72.0059 27.1501C72.2312 27.2803 72.4839 27.3454 72.7641 27.3454Z" fill="#00094A"/>
<path d="M80.4585 25.7828C80.4585 25.8451 80.453 25.9272 80.442 26.0291H76.8983C76.9477 26.4254 77.1153 26.7453 77.401 26.9887C77.6922 27.2265 78.0521 27.3454 78.4806 27.3454C79.0025 27.3454 79.4229 27.1642 79.7415 26.8019L80.1783 27.3284C79.9805 27.5662 79.7333 27.7474 79.4366 27.872C79.1454 27.9965 78.8185 28.0588 78.4559 28.0588C77.9944 28.0588 77.5851 27.9625 77.2279 27.77C76.8708 27.5719 76.5934 27.2973 76.3956 26.9463C76.2033 26.5952 76.1071 26.1989 76.1071 25.7573C76.1071 25.3214 76.2005 24.9279 76.3873 24.5768C76.5796 24.2258 76.8406 23.9541 77.1702 23.7616C77.5054 23.5634 77.8817 23.4643 78.2993 23.4643C78.7169 23.4643 79.0877 23.5634 79.4119 23.7616C79.7415 23.9541 79.997 24.2258 80.1783 24.5768C80.3651 24.9279 80.4585 25.3298 80.4585 25.7828ZM78.2993 24.1522C77.9202 24.1522 77.6015 24.2711 77.3433 24.5089C77.0906 24.7467 76.9422 25.0581 76.8983 25.4431H79.7003C79.6564 25.0637 79.5053 24.7552 79.247 24.5174C78.9943 24.2739 78.6784 24.1522 78.2993 24.1522Z" fill="#00094A"/>
<path d="M85.3418 23.5068L83.4298 28.0078H82.6222L80.7102 23.5068H81.5343L83.0342 27.1161L84.5671 23.5068H85.3418Z" fill="#00094A"/>
<path d="M89.907 25.7828C89.907 25.8451 89.9015 25.9272 89.8905 26.0291H86.3468C86.3962 26.4254 86.5638 26.7453 86.8495 26.9887C87.1407 27.2265 87.5005 27.3454 87.9291 27.3454C88.451 27.3454 88.8713 27.1642 89.19 26.8019L89.6268 27.3284C89.429 27.5662 89.1818 27.7474 88.8851 27.872C88.5939 27.9965 88.267 28.0588 87.9044 28.0588C87.4429 28.0588 87.0335 27.9625 86.6764 27.77C86.3193 27.5719 86.0418 27.2973 85.844 26.9463C85.6517 26.5952 85.5556 26.1989 85.5556 25.7573C85.5556 25.3214 85.649 24.9279 85.8358 24.5768C86.0281 24.2258 86.2891 23.9541 86.6187 23.7616C86.9539 23.5634 87.3302 23.4643 87.7478 23.4643C88.1653 23.4643 88.5362 23.5634 88.8603 23.7616C89.19 23.9541 89.4455 24.2258 89.6268 24.5768C89.8136 24.9279 89.907 25.3298 89.907 25.7828ZM87.7478 24.1522C87.3687 24.1522 87.05 24.2711 86.7918 24.5089C86.5391 24.7467 86.3907 25.0581 86.3468 25.4431H89.1488C89.1048 25.0637 88.9537 24.7552 88.6955 24.5174C88.4428 24.2739 88.1269 24.1522 87.7478 24.1522Z" fill="#00094A"/>
<path d="M91.0056 21.7064H91.7967V28.0078H91.0056V21.7064Z" fill="#00094A"/>
<path d="M95.1781 28.0588C94.7441 28.0588 94.354 27.9597 94.0079 27.7616C93.6617 27.5634 93.3898 27.2916 93.192 26.9463C92.9997 26.5952 92.9035 26.1989 92.9035 25.7573C92.9035 25.3157 92.9997 24.9222 93.192 24.5768C93.3898 24.2258 93.6617 23.9541 94.0079 23.7616C94.354 23.5634 94.7441 23.4643 95.1781 23.4643C95.6122 23.4643 95.9995 23.5634 96.3401 23.7616C96.6863 23.9541 96.9555 24.2258 97.1478 24.5768C97.3456 24.9222 97.4445 25.3157 97.4445 25.7573C97.4445 26.1989 97.3456 26.5952 97.1478 26.9463C96.9555 27.2916 96.6863 27.5634 96.3401 27.7616C95.9995 27.9597 95.6122 28.0588 95.1781 28.0588ZM95.1781 27.3454C95.4583 27.3454 95.7083 27.2803 95.9281 27.1501C96.1533 27.0142 96.3291 26.8274 96.4555 26.5896C96.5819 26.3461 96.6451 26.0687 96.6451 25.7573C96.6451 25.4459 96.5819 25.1713 96.4555 24.9335C96.3291 24.6901 96.1533 24.5032 95.9281 24.373C95.7083 24.2428 95.4583 24.1777 95.1781 24.1777C94.8979 24.1777 94.6452 24.2428 94.4199 24.373C94.2001 24.5032 94.0243 24.6901 93.8925 24.9335C93.7661 25.1713 93.7029 25.4459 93.7029 25.7573C93.7029 26.0687 93.7661 26.3461 93.8925 26.5896C94.0243 26.8274 94.2001 27.0142 94.4199 27.1501C94.6452 27.2803 94.8979 27.3454 95.1781 27.3454Z" fill="#00094A"/>
<path d="M100.854 23.4643C101.277 23.4643 101.657 23.5606 101.992 23.7531C102.327 23.9456 102.588 24.2145 102.775 24.5599C102.967 24.9052 103.063 25.3044 103.063 25.7573C103.063 26.2102 102.967 26.6122 102.775 26.9633C102.588 27.3086 102.327 27.5775 101.992 27.77C101.657 27.9625 101.277 28.0588 100.854 28.0588C100.541 28.0588 100.253 27.9965 99.9891 27.872C99.7309 27.7474 99.5111 27.5662 99.3298 27.3284V29.6554H98.5386V23.5068H99.2968V24.2202C99.4726 23.971 99.6951 23.7842 99.9644 23.6596C100.234 23.5294 100.53 23.4643 100.854 23.4643ZM100.788 27.3454C101.069 27.3454 101.319 27.2803 101.538 27.1501C101.764 27.0142 101.94 26.8274 102.066 26.5896C102.198 26.3461 102.264 26.0687 102.264 25.7573C102.264 25.4459 102.198 25.1713 102.066 24.9335C101.94 24.6901 101.764 24.5032 101.538 24.373C101.319 24.2428 101.069 24.1777 100.788 24.1777C100.514 24.1777 100.264 24.2456 100.039 24.3815C99.8188 24.5117 99.643 24.6957 99.5111 24.9335C99.3847 25.1713 99.3215 25.4459 99.3215 25.7573C99.3215 26.0687 99.3847 26.3461 99.5111 26.5896C99.6375 26.8274 99.8133 27.0142 100.039 27.1501C100.264 27.2803 100.514 27.3454 100.788 27.3454Z" fill="#00094A"/>
<path d="M109.62 23.4643C110.17 23.4643 110.604 23.6285 110.922 23.9569C111.246 24.2853 111.409 24.7722 111.409 25.4176V28.0078H110.617V25.511C110.617 25.0751 110.518 24.7467 110.321 24.5259C110.128 24.3051 109.851 24.1947 109.488 24.1947C109.087 24.1947 108.769 24.3249 108.532 24.5853C108.296 24.8401 108.178 25.2081 108.178 25.6894V28.0078H107.387V25.511C107.387 25.0751 107.288 24.7467 107.09 24.5259C106.898 24.3051 106.62 24.1947 106.258 24.1947C105.857 24.1947 105.538 24.3249 105.302 24.5853C105.065 24.8401 104.947 25.2081 104.947 25.6894V28.0078H104.156V23.5068H104.914V24.1777C105.074 23.9456 105.283 23.77 105.541 23.6511C105.799 23.5266 106.093 23.4643 106.423 23.4643C106.763 23.4643 107.065 23.5351 107.329 23.6766C107.593 23.8182 107.796 24.0248 107.939 24.2966C108.104 24.0361 108.332 23.8323 108.623 23.6851C108.92 23.5379 109.252 23.4643 109.62 23.4643Z" fill="#00094A"/>
<path d="M116.836 25.7828C116.836 25.8451 116.83 25.9272 116.819 26.0291H113.276C113.325 26.4254 113.493 26.7453 113.778 26.9887C114.07 27.2265 114.43 27.3454 114.858 27.3454C115.38 27.3454 115.8 27.1642 116.119 26.8019L116.556 27.3284C116.358 27.5662 116.111 27.7474 115.814 27.872C115.523 27.9965 115.196 28.0588 114.833 28.0588C114.372 28.0588 113.963 27.9625 113.605 27.77C113.248 27.5719 112.971 27.2973 112.773 26.9463C112.581 26.5952 112.485 26.1989 112.485 25.7573C112.485 25.3214 112.578 24.9279 112.765 24.5768C112.957 24.2258 113.218 23.9541 113.548 23.7616C113.883 23.5634 114.259 23.4643 114.677 23.4643C115.094 23.4643 115.465 23.5634 115.789 23.7616C116.119 23.9541 116.374 24.2258 116.556 24.5768C116.743 24.9279 116.836 25.3298 116.836 25.7828ZM114.677 24.1522C114.298 24.1522 113.979 24.2711 113.721 24.5089C113.468 24.7467 113.32 25.0581 113.276 25.4431H116.078C116.034 25.0637 115.883 24.7552 115.624 24.5174C115.372 24.2739 115.056 24.1522 114.677 24.1522Z" fill="#00094A"/>
<path d="M120.267 23.4643C120.822 23.4643 121.261 23.6313 121.585 23.9654C121.915 24.2938 122.08 24.7778 122.08 25.4176V28.0078H121.289V25.511C121.289 25.0751 121.187 24.7467 120.984 24.5259C120.781 24.3051 120.489 24.1947 120.11 24.1947C119.682 24.1947 119.344 24.3249 119.097 24.5853C118.849 24.8401 118.726 25.2081 118.726 25.6894V28.0078H117.935V23.5068H118.693V24.1862C118.852 23.9541 119.066 23.7757 119.336 23.6511C119.61 23.5266 119.921 23.4643 120.267 23.4643Z" fill="#00094A"/>
<path d="M126 27.7446C125.885 27.8465 125.742 27.9257 125.571 27.9824C125.401 28.0333 125.225 28.0588 125.044 28.0588C124.604 28.0588 124.264 27.9371 124.022 27.6936C123.78 27.4502 123.659 27.102 123.659 26.649V24.1777H122.918V23.5068H123.659V22.5216H124.451V23.5068H125.703V24.1777H124.451V26.6151C124.451 26.8585 124.508 27.0453 124.624 27.1756C124.745 27.3058 124.915 27.3709 125.135 27.3709C125.376 27.3709 125.582 27.3001 125.753 27.1586L126 27.7446Z" fill="#00094A"/>
</svg>
