<svg width="40" height="46" viewBox="0 0 40 46" fill="none" xmlns="http://www.w3.org/2000/svg">
<path d="M19.8566 45.7373L3.94439 41.2389L0.398438 0.737305H39.3624L35.8127 41.2326L19.8566 45.7373Z" fill="#264DE4"/>
<path d="M32.7737 38.6544L35.8072 4.04932H19.8804V42.2945L32.7737 38.6544Z" fill="#2965F1"/>
<path d="M8.52734 19.0708L8.96453 24.0381H19.8803V19.0708H8.52734Z" fill="#EBEBEB"/>
<path d="M7.64893 9.0166L8.09234 13.984H19.8803V9.0166H19.8635H7.64893Z" fill="#EBEBEB"/>
<path d="M19.8804 31.9712L19.8591 31.977L14.4265 30.4832L14.0792 26.5215H11.4395H9.18262L9.86601 34.321L19.858 37.1457L19.8804 37.1393V31.9712Z" fill="#EBEBEB"/>
<path d="M31.2023 19.0707L32.0829 9.0166H19.8638V13.984H26.7372L26.2934 19.0707H19.8638V24.038H25.8703L25.3041 30.4803L19.8638 31.9756V37.1435L29.8637 34.3212L29.9371 33.482L31.0833 20.4045L31.2023 19.0707Z" fill="white"/>
</svg>
