<svg width="110" height="135" viewBox="0 0 110 135" fill="none" xmlns="http://www.w3.org/2000/svg">
<path fill-rule="evenodd" clip-rule="evenodd" d="M62.9189 118.343L61.3428 119.919C60.8857 120.376 60.8857 121.124 61.3428 121.581L62.9189 123.157C63.376 123.614 64.124 123.614 64.5811 123.157L66.1572 121.581C66.6143 121.124 66.6143 120.376 66.1572 119.919L64.5811 118.343C64.124 117.886 63.376 117.886 62.9189 118.343Z" fill="#30D2A3"/>
<path d="M102.143 12.0476H94.2857V7.85714C94.2857 3.52471 90.761 0 86.4286 0H23.5714C19.239 0 15.7143 3.52471 15.7143 7.85714V12.0476H7.85714C3.52471 12.0476 0 15.5723 0 19.9048C0 36.9435 7.97291 49.4652 20.9073 52.9514C25.3414 62.7113 32.352 71.0081 41.2505 77.0034C43.3002 78.3844 44.5238 80.7486 44.5238 83.3276V97.7583C42.7285 98.2187 41.0813 99.1522 39.7359 100.498C37.7567 102.477 36.6667 105.108 36.6667 107.905H34.0476C29.7152 107.905 26.1905 111.429 26.1905 115.762V131.476C26.1905 132.923 27.3633 134.095 28.8095 134.095H81.1905C82.6367 134.095 83.8095 132.923 83.8095 131.476V115.762C83.8095 111.429 80.2848 107.905 75.9524 107.905H73.3333C73.3333 103.032 69.9896 98.9259 65.4762 97.7601V83.3407C65.4762 80.7534 66.7006 78.3847 68.7521 77.0037C77.6514 71.0079 84.662 62.7107 89.0958 52.9506C102.028 49.4631 110 36.9422 110 19.9048C110 15.5723 106.475 12.0476 102.143 12.0476ZM5.2381 19.9048C5.2381 18.4606 6.413 17.2857 7.85714 17.2857H15.7143V28.9929C15.7143 34.963 16.6186 40.8092 18.404 46.4394C10.0695 42.311 5.2381 32.7763 5.2381 19.9048ZM75.9524 113.143C77.3965 113.143 78.5714 114.318 78.5714 115.762V128.857H31.4286V115.762C31.4286 114.318 32.6035 113.143 34.0476 113.143H75.9524ZM89.0476 28.9929C89.0476 36.147 87.6234 43.1085 84.8137 49.6833C80.817 59.0378 74.2511 66.9827 65.8261 72.6589C62.327 75.0142 60.2381 79.0075 60.2381 83.3407V100.048C60.2381 101.494 61.4109 102.667 62.8571 102.667C65.7454 102.667 68.0952 105.016 68.0952 107.905H41.9048C41.9048 106.507 42.45 105.192 43.4398 104.202C44.3811 103.26 45.6165 102.721 46.9375 102.671C47.0054 102.676 47.0737 102.678 47.1426 102.678C48.5888 102.678 49.7616 101.494 49.7616 100.048V83.3276C49.7616 79.0036 47.674 75.0155 44.1773 72.6595C35.7516 66.9829 29.1856 59.0381 25.1884 49.6828C22.3777 43.1103 20.9524 36.1491 20.9524 28.9929V7.85714C20.9524 6.413 22.1273 5.2381 23.5714 5.2381H86.4286C87.8727 5.2381 89.0476 6.413 89.0476 7.85714V28.9929ZM91.597 46.4389C93.3816 40.8074 94.2857 34.9614 94.2857 28.9929V17.2857H102.143C103.587 17.2857 104.762 18.4606 104.762 19.9048C104.762 32.7756 99.9311 42.3099 91.597 46.4389Z" fill="white"/>
<path d="M75.7266 30.947C75.4189 29.9986 74.5991 29.3074 73.6123 29.1644L62.3095 27.5239L57.254 17.2795C56.8127 16.3853 55.9023 15.8193 54.9052 15.8193C53.9081 15.8193 52.9978 16.3853 52.5564 17.2795L47.5009 27.5239L36.1984 29.1644C35.2115 29.3077 34.392 29.9989 34.0838 30.947C33.7758 31.8953 34.0327 32.9361 34.7467 33.632L42.927 41.6044L40.9962 52.8629C40.8278 53.8456 41.2317 54.8384 42.0384 55.4246C42.845 56.0105 43.9144 56.0877 44.7965 55.6239L54.9055 50.309L65.0168 55.6239C65.9047 56.0906 66.9735 56.0068 67.775 55.4243C68.5814 54.8382 68.9852 53.845 68.8165 52.8624L66.8837 41.6041L75.0638 33.632C75.778 32.9361 76.0346 31.8953 75.7266 30.947ZM62.2414 38.8141C61.6241 39.4159 61.342 40.2831 61.4882 41.133L62.7561 48.5179L56.1239 45.0317C55.3604 44.6307 54.449 44.6307 53.6866 45.0319L47.0564 48.5179L48.323 41.1324C48.4686 40.2826 48.1868 39.4156 47.5695 38.8141L42.2047 33.5854L49.6168 32.5095C50.4701 32.3856 51.2076 31.8497 51.5892 31.0766L54.9055 24.3564L58.2217 31.0766C58.6033 31.8497 59.3408 32.3856 60.1941 32.5095L67.6065 33.5854L62.2414 38.8141Z" fill="#30D2A3"/>
<path d="M55 118.381H44.5238C43.0776 118.381 41.9048 119.553 41.9048 121C41.9048 122.446 43.0776 123.619 44.5238 123.619H55C56.4463 123.619 57.6191 122.446 57.6191 121C57.6191 119.553 56.4463 118.381 55 118.381Z" fill="#30D2A3"/>
<path d="M95.3359 126.238H96.7961C96.0522 126.091 95.552 126.076 95.3359 126.238Z" fill="white"/>
</svg>
