<svg width="110" height="103" viewBox="0 0 110 103" fill="none" xmlns="http://www.w3.org/2000/svg">
<path d="M106.24 28.0306H101.652L98.2955 23.9956L103.385 17.877C104.196 16.9012 104.366 15.581 103.827 14.4316C103.288 13.2824 102.165 12.5685 100.896 12.5685H83.1228C82.2327 12.5685 81.5115 13.2899 81.5115 14.1798V28.0306H42.3638C42.9911 26.4631 43.3275 24.7737 43.3275 23.0462C43.3275 15.4323 36.9993 9.25321 29.2413 9.60727C22.3268 9.92631 16.7007 15.5963 16.4328 22.5159C16.3591 24.4328 16.6936 26.3062 17.3815 28.0306H3.75977C1.68674 28.0306 0 29.7173 0 31.7903V41.8085C0 42.6984 0.72123 43.4198 1.61133 43.4198C2.50143 43.4198 3.22266 42.6984 3.22266 41.8085V31.7903C3.22266 31.4943 3.4635 31.2532 3.75977 31.2532H19.2188C19.9981 32.2638 20.9264 33.1718 21.989 33.9413C22.4875 34.3029 22.7734 34.8398 22.7734 35.4147V36.2346C21.7067 36.4932 20.9114 37.4536 20.9114 38.5987V45.0167C20.9114 46.3595 22.0037 47.4516 23.3464 47.4516H36.404C37.7468 47.4516 38.839 46.3593 38.839 45.0167V38.5987C38.839 37.4536 38.0435 36.493 36.9768 36.2346V35.4169C36.9768 34.8439 37.2408 34.3139 37.686 33.9972C38.775 33.2188 39.728 32.2909 40.5264 31.2534H81.5113V45.4701C78.928 46.1786 77.0236 48.546 77.0236 51.3512C77.0236 54.7141 79.7595 57.4502 83.1226 57.4502C86.4858 57.4502 89.2216 54.7141 89.2216 51.3512C89.2216 48.5462 87.3174 46.1788 84.7339 45.4701V35.4227H100.895C102.165 35.4227 103.288 34.7088 103.827 33.5596C104.176 32.8158 104.226 32.0009 103.999 31.2536H106.24C106.537 31.2536 106.777 31.4947 106.777 31.7907V87.9359C106.777 88.2319 106.537 88.473 106.24 88.473H96.293C95.4029 88.473 94.6816 89.1944 94.6816 90.0843C94.6816 90.9742 95.4029 91.6956 96.293 91.6956H106.24C108.313 91.6956 110 90.0089 110 87.9359V31.7907C110 29.7173 108.313 28.0306 106.24 28.0306ZM35.6164 44.2291H24.134V39.3863H24.3682C24.3738 39.3863 24.3792 39.3872 24.3848 39.3872C24.3904 39.3872 24.3957 39.3863 24.4013 39.3863H35.3489C35.3545 39.3863 35.3598 39.3872 35.3654 39.3872C35.371 39.3872 35.3764 39.3863 35.382 39.3863H35.6164V44.2291ZM35.8147 31.3733C34.5245 32.2913 33.7541 33.803 33.7541 35.4169V36.1637H25.9961V35.4147C25.9961 33.8187 25.205 32.2924 23.8797 31.3318C21.1009 29.3196 19.5209 26.0701 19.6526 22.6401C19.8563 17.3797 24.1332 13.0688 29.3891 12.8265C35.2868 12.556 40.1047 17.2508 40.1047 23.0462C40.1049 26.3402 38.5 29.4539 35.8147 31.3733ZM85.9989 51.351C85.9989 52.937 84.7086 54.2273 83.1226 54.2273C81.5366 54.2273 80.2463 52.937 80.2463 51.351C80.2463 49.7652 81.5366 48.4749 83.1226 48.4749C84.7086 48.4749 85.9989 49.765 85.9989 51.351ZM100.911 32.1985C100.911 32.1985 100.907 32.1996 100.895 32.1996H84.7339V29.65C84.7339 29.6472 84.7344 29.6447 84.7344 29.6417C84.7344 29.6387 84.7339 29.6361 84.7339 29.6333V15.7888H100.9C100.906 15.7939 100.913 15.8072 100.907 15.8163L95.4759 22.3458C94.681 23.3018 94.681 24.6893 95.4761 25.6456L99.623 30.6261C99.6458 30.6557 99.6699 30.6843 99.6946 30.7122L100.913 32.176C100.913 32.1837 100.907 32.1985 100.911 32.1985Z" fill="white"/>
<path d="M88.7734 88.4719H48.2066V79.6233C49.5896 79.3645 50.64 78.1502 50.64 76.6933V69.0728C50.64 68.6162 50.5338 68.1853 50.3499 67.7981C52.3894 64.8827 52.8385 61.8048 51.6749 58.631C50.644 55.8189 48.3545 52.9004 44.4692 49.4464C43.3338 48.437 41.6217 48.437 40.4867 49.4464C36.6012 52.9006 34.3112 55.8191 33.2799 58.6307C32.1157 61.8053 32.5645 64.8836 34.6045 67.7992C34.4208 68.1861 34.3148 68.6167 34.3148 69.0728V76.6933C34.3148 78.1497 35.3646 79.3638 36.7469 79.6231V88.4717H25.9428V85.6153C25.9428 84.7252 25.2216 84.004 24.3315 84.004C23.4416 84.004 22.7202 84.7254 22.7202 85.6153V90.0727C22.7202 90.0761 22.7197 90.0796 22.7197 90.083C22.7197 90.0864 22.7202 90.0899 22.7202 90.0933V99.7205H18.3045V77.9821C19.895 77.7432 21.4004 77.1559 22.7204 76.2716V78.0958C22.7204 78.9857 23.4416 79.7071 24.3317 79.7071C25.2218 79.7071 25.943 78.9857 25.943 78.0958V72.4516C25.943 72.4499 25.943 72.4484 25.943 72.4467V71.7512C25.943 68.4068 22.564 58.516 19.7293 50.8081C19.256 49.5205 18.0638 48.6884 16.6925 48.6882C15.3209 48.6882 14.1288 49.5203 13.6553 50.8079C10.8212 58.5145 7.44262 68.4038 7.44262 71.7512V88.4717H3.75977C3.4635 88.4717 3.22266 88.2306 3.22266 87.9346V49.3271C3.22266 48.4373 2.50143 47.7158 1.61133 47.7158C0.72123 47.7158 0 48.4373 0 49.3271V87.9346C0 90.0076 1.68674 91.6943 3.75977 91.6943H7.4424V100.259C7.4424 101.739 8.64682 102.943 10.1277 102.943H23.2573C24.7382 102.943 25.9428 101.739 25.9428 100.259V91.6943H36.7469V100.258C36.7469 101.739 37.9515 102.944 39.4324 102.944H45.5211C47.002 102.944 48.2066 101.739 48.2066 100.258V91.6943H88.7734C89.6635 91.6943 90.3848 90.9729 90.3848 90.083C90.3848 89.1931 89.6635 88.4719 88.7734 88.4719ZM10.6651 71.9225V71.7515C10.6651 70.4856 11.4267 67.4464 12.8036 63.113H20.581C21.9583 67.4477 22.7204 70.4869 22.7204 71.7515V71.9229C19.6692 75.87 13.7158 75.8694 10.6651 71.9225ZM16.6798 51.9205C16.6811 51.9167 16.6826 51.9136 16.6835 51.9113C16.6914 51.9096 16.6994 51.9076 16.6968 51.902C16.6983 51.9046 16.7013 51.9104 16.705 51.9203C17.7723 54.8226 18.7174 57.4972 19.5244 59.8904H13.8604C14.6674 57.4972 15.6125 54.8226 16.6798 51.9205ZM10.6651 76.2713C11.9853 77.1556 13.4909 77.7432 15.0818 77.9821V99.7207H10.6651V76.2713ZM37.5375 76.4537V69.3126H47.4173V76.4537C45.2349 76.4537 39.6683 76.4537 37.5375 76.4537ZM42.4778 51.9888C49.1071 57.922 50.6101 61.9677 47.6132 66.0899H37.3405C34.3443 61.9683 35.8478 57.9228 42.4778 51.9888ZM44.984 99.7211H39.9695V79.6764H44.984V99.7211Z" fill="#30D2A3"/>
<path d="M29.8755 7.00348C30.7656 7.00348 31.4868 6.28203 31.4868 5.39215V1.61133C31.4868 0.721445 30.7656 0 29.8755 0C28.9854 0 28.2642 0.721445 28.2642 1.61133V5.39215C28.2642 6.28203 28.9854 7.00348 29.8755 7.00348Z" fill="white"/>
<path d="M18.2681 9.78738C18.8974 10.4164 19.9175 10.4169 20.5468 9.78738C21.1763 9.15811 21.1763 8.13781 20.547 7.50854L17.8494 4.81074C17.2199 4.18168 16.1996 4.18147 15.5708 4.81074C14.9413 5.44002 14.9413 6.46031 15.5706 7.08959L18.2681 9.78738Z" fill="white"/>
<path d="M41.4822 9.78662L44.18 7.08862C44.8093 6.45934 44.8093 5.43905 44.1798 4.80977C43.5507 4.18049 42.5304 4.18071 41.9012 4.80977L39.2034 7.50778C38.5741 8.13705 38.5741 9.15735 39.2036 9.78662C39.8324 10.4159 40.8527 10.4157 41.4822 9.78662Z" fill="white"/>
<path d="M59.0717 52.4404H55.2148C54.3247 52.4404 53.6035 53.1619 53.6035 54.0518C53.6035 54.9416 54.3247 55.6631 55.2148 55.6631H59.0717C60.6631 55.6631 61.9579 56.9577 61.9579 58.5491V73.7091C61.9579 79.9886 67.0665 85.0971 73.3459 85.0971C79.6256 85.0971 84.7342 79.9886 84.7342 73.7091V67.2904L87.522 69.4079C87.8133 69.6292 88.1558 69.7364 88.4954 69.7362C88.982 69.7362 89.4629 69.5169 89.78 69.0994C90.3182 68.3909 90.18 67.38 89.4715 66.8416L84.0976 62.7596C83.811 62.5415 83.453 62.4313 83.1228 62.4313C83.1226 62.4313 83.1226 62.4313 83.1224 62.4313C82.7976 62.4315 82.4454 62.5355 82.1485 62.7596L76.7744 66.8416C76.0656 67.3798 75.9277 68.3906 76.4657 69.0994C77.0036 69.8082 78.0151 69.9465 78.7235 69.4079L81.5117 67.2902V73.7091C81.5117 78.2116 77.8486 81.8745 73.3462 81.8745C68.8439 81.8745 65.1808 78.2114 65.1808 73.7091V58.5491C65.1806 55.1808 62.4403 52.4404 59.0717 52.4404Z" fill="white"/>
<path fill-rule="evenodd" clip-rule="evenodd" d="M31.5111 18.6246L34.3767 21.4898C35.2078 22.3207 35.2078 23.6807 34.3767 24.5116L31.5111 27.3768C30.6801 28.2077 29.3199 28.2077 28.4889 27.3768L25.6233 24.5116C24.7922 23.6807 24.7922 22.3207 25.6233 21.4898L28.4889 18.6246C29.3199 17.7918 30.6782 17.7918 31.5111 18.6246Z" fill="#06A39C"/>
</svg>
