<svg width="32" height="46" viewBox="0 0 32 46" fill="none" xmlns="http://www.w3.org/2000/svg">
<g clip-path="url(#clip0)">
<path d="M8.00182 45.6114C12.4169 45.6114 16.0002 42.2513 16.0002 38.1113V30.6113H8.00182C3.5867 30.6113 0.00341797 33.9713 0.00341797 38.1113C0.00341797 42.2513 3.5867 45.6114 8.00182 45.6114Z" fill="#0ACF83"/>
<path d="M0.00341797 23.1113C0.00341797 18.9713 3.5867 15.6113 8.00182 15.6113H16.0002V30.6113H8.00182C3.5867 30.6113 0.00341797 27.2513 0.00341797 23.1113Z" fill="#A259FF"/>
<path d="M0.00439453 8.11133C0.00439453 3.97133 3.58768 0.611328 8.00279 0.611328H16.0012V15.6113H8.00279C3.58768 15.6113 0.00439453 12.2513 0.00439453 8.11133Z" fill="#F24E1E"/>
<path d="M16 0.611328H23.9984C28.4135 0.611328 31.9968 3.97133 31.9968 8.11133C31.9968 12.2513 28.4135 15.6113 23.9984 15.6113H16V0.611328Z" fill="#FF7262"/>
<path d="M31.9968 23.1113C31.9968 27.2513 28.4135 30.6113 23.9984 30.6113C19.5833 30.6113 16 27.2513 16 23.1113C16 18.9713 19.5833 15.6113 23.9984 15.6113C28.4135 15.6113 31.9968 18.9713 31.9968 23.1113Z" fill="#1ABCFE"/>
</g>
<defs>
<clipPath id="clip0">
<rect width="32" height="45" fill="white" transform="translate(0 0.611328)"/>
</clipPath>
</defs>
</svg>
