<svg width="45" height="45" viewBox="0 0 45 45" fill="none" xmlns="http://www.w3.org/2000/svg">
<path d="M44.1514 20.4954L24.504 0.848644C23.3731 -0.282881 21.538 -0.282881 20.4058 0.848644L16.3259 4.9286L21.5014 10.1042C22.7041 9.69781 24.0833 9.97045 25.042 10.9292C26.0053 11.8941 26.276 13.285 25.8598 14.4916L30.8476 19.4797C32.0543 19.064 33.4467 19.3329 34.4105 20.2983C35.7575 21.6448 35.7575 23.8272 34.4105 25.1746C33.0631 26.5221 30.8808 26.5221 29.5327 25.1746C28.5195 24.1603 28.2692 22.6723 28.7821 21.424L24.1306 16.7724L24.1301 29.0135C24.4673 29.1803 24.7752 29.4005 25.042 29.6657C26.389 31.0122 26.389 33.1948 25.042 34.5432C23.6947 35.8901 21.5113 35.8901 20.1658 34.5432C18.8188 33.1948 18.8188 31.0124 20.1658 29.6659C20.4886 29.3429 20.8723 29.0871 21.2945 28.9133V16.5582C20.8717 16.3855 20.4878 16.1296 20.1658 15.8056C19.1453 14.7864 18.8999 13.2889 19.4228 12.0357L14.3209 6.93325L0.849025 20.4045C-0.283008 21.5371 -0.283008 23.3724 0.849025 24.5041L20.4968 44.1512C21.628 45.2829 23.4628 45.2829 24.5954 44.1512L44.1512 24.5954C45.2829 23.4633 45.2829 21.6269 44.1512 20.4954" fill="#EE4A17"/>
</svg>
