<svg width="40" height="45" viewBox="0 0 40 45" fill="none" xmlns="http://www.w3.org/2000/svg">
<g clip-path="url(#clip0)">
<path fill-rule="evenodd" clip-rule="evenodd" d="M23.84 5.15288L33.0816 10.4883C33.3484 10.206 33.6546 9.96374 33.9907 9.76898C35.9072 8.66722 38.3519 9.32137 39.4652 11.2379C40.5671 13.1544 39.9128 15.5987 37.9961 16.7119C37.6626 16.904 37.3031 17.0471 36.9288 17.1368V27.8116C37.299 27.9015 37.6546 28.0436 37.9847 28.2337C39.9129 29.3469 40.5671 31.7913 39.4538 33.7078C38.3519 35.6242 35.8958 36.2784 33.9791 35.1768C33.6078 34.9637 33.2733 34.6922 32.9885 34.3726L23.8032 39.6752C23.9377 40.0825 24.006 40.5087 24.0055 40.9376C24.0055 43.141 22.2152 44.9428 20 44.9428C17.7849 44.9428 15.9946 43.1524 15.9946 40.9376C15.9946 40.5439 16.0511 40.1636 16.1566 39.8044L6.91754 34.4706C6.65366 34.7473 6.35178 34.985 6.02098 35.1768C4.09285 36.2784 1.64817 35.6242 0.54629 33.7078C-0.555428 31.7913 0.0987904 29.3469 2.01535 28.2337C2.34552 28.0436 2.70106 27.9014 3.07129 27.8114V17.1368C2.69698 17.0471 2.33752 16.904 2.00395 16.7119C0.0872278 15.6103 -0.566991 13.1544 0.534884 11.2379C1.63676 9.32137 4.0927 8.66722 6.00941 9.76898C6.34365 9.9627 6.64832 10.2034 6.9141 10.4838L16.1583 5.14695C16.0493 4.77712 15.9942 4.39354 15.9946 4.008C15.9946 1.79338 17.7849 0.00292969 20 0.00292969C22.2152 0.00292969 24.0055 1.79322 24.0055 4.008C24.0055 4.40608 23.9477 4.79026 23.84 5.15288ZM22.8772 6.79678L32.1408 12.1447C31.9933 12.6603 31.951 13.2002 32.0164 13.7325C32.0818 14.2648 32.2536 14.7784 32.5216 15.243C33.0855 16.2238 34.0041 16.8741 35.0236 17.1275V27.8155C34.9716 27.8281 34.9199 27.842 34.8685 27.8567L22.7696 6.9038C22.8061 6.86881 22.8421 6.83318 22.8772 6.79694V6.79678ZM17.233 6.90615L5.13426 27.8587C5.08194 27.8436 5.02933 27.8295 4.97645 27.8166V17.1275C5.99598 16.8741 6.91457 16.2238 7.47848 15.243C7.74698 14.7775 7.91894 14.2628 7.98409 13.7295C8.04925 13.1961 8.00626 12.6551 7.8577 12.1387L17.1186 6.79241C17.156 6.831 17.1941 6.86896 17.233 6.90599V6.90615ZM21.1193 7.85527L33.2152 28.8032C32.9381 29.0675 32.7006 29.3705 32.51 29.7026C32.3199 30.0328 32.1778 30.3883 32.0878 30.7584H7.91254C7.8225 30.3883 7.68024 30.0327 7.49004 29.7026C7.29879 29.3728 7.06175 29.0717 6.78598 28.8083L18.8843 7.85621C19.247 7.96064 19.6226 8.01344 20 8.01307C20.3886 8.01307 20.7641 7.95807 21.1193 7.85527ZM22.9622 38.2394L32.1657 32.9262C32.1381 32.8395 32.1134 32.7518 32.0918 32.6634H7.90738C7.89457 32.7154 7.88066 32.767 7.86582 32.8184L17.1143 38.1577C17.4877 37.7694 17.9359 37.4607 18.4319 37.2501C18.9278 37.0396 19.4612 36.9315 20 36.9325C20.5577 36.9315 21.1093 37.0473 21.6195 37.2724C22.1297 37.4975 22.5871 37.8269 22.9622 38.2394V38.2394Z" fill="#E535AB"/>
</g>
<defs>
<clipPath id="clip0">
<rect width="40" height="45" fill="white"/>
</clipPath>
</defs>
</svg>
