<svg width="40" height="46" viewBox="0 0 40 46" fill="none" xmlns="http://www.w3.org/2000/svg">
<path d="M39.9901 0.737305L36.3754 41.2326L20.1272 45.7373L3.92384 41.2389L0.312988 0.737305H39.9901Z" fill="#E44D26"/>
<path d="M20.1519 42.2945L33.2812 38.6544L36.3701 4.04932H20.1519V42.2945Z" fill="#F16529"/>
<path d="M13.1248 13.984H20.1516V9.0166H20.1344H7.69629L7.81519 10.3493L9.03602 24.038H20.1516V19.0707H13.5787L13.1248 13.984Z" fill="#EBEBEB"/>
<path d="M14.2436 26.522H11.5555H9.25732L9.95322 34.3214L20.1281 37.1462L20.1509 37.1398V31.9717L20.1292 31.9775L14.5972 30.4837L14.2436 26.522Z" fill="#EBEBEB"/>
<path d="M20.1348 24.0386H26.2513L25.6747 30.4809L20.1348 31.9762V37.1441L30.3177 34.3218L30.3924 33.4826L31.5596 20.4052L31.6808 19.0713H30.3423H20.1348V24.0386Z" fill="white"/>
<path d="M20.1348 13.9719V13.984H32.1169H32.1328L32.2325 12.8675L32.4588 10.3493L32.5776 9.0166H20.1348V12.1018V13.9719Z" fill="white"/>
</svg>
