<svg width="23" height="23" viewBox="0 0 23 23" xmlns="http://www.w3.org/2000/svg">
<path fill-rule="evenodd" clip-rule="evenodd" d="M6.77588 0.110742C7.99775 0.0544922 8.38734 0.0419922 11.4998 0.0419922C14.6123 0.0419922 15.0019 0.0555338 16.2228 0.110742C17.4436 0.16595 18.2769 0.360742 19.0061 0.643034C19.7696 0.931575 20.4623 1.38262 21.0353 1.96595C21.6186 2.53783 22.0686 3.22949 22.3561 3.99408C22.6394 4.72324 22.8332 5.55657 22.8894 6.77532C22.9457 7.99928 22.9582 8.38887 22.9582 11.5003C22.9582 14.6128 22.9446 15.0024 22.8894 16.2243C22.8342 17.443 22.6394 18.2764 22.3561 19.0055C22.0686 19.7702 21.6178 20.463 21.0353 21.0357C20.4623 21.6191 19.7696 22.0691 19.0061 22.3566C18.2769 22.6399 17.4436 22.8337 16.2248 22.8899C15.0019 22.9462 14.6123 22.9587 11.4998 22.9587C8.38734 22.9587 7.99775 22.9451 6.77588 22.8899C5.55713 22.8347 4.7238 22.6399 3.99463 22.3566C3.22996 22.069 2.53715 21.6183 1.96442 21.0357C1.38148 20.4635 0.930373 19.771 0.642546 19.0066C0.360254 18.2774 0.166504 17.4441 0.110254 16.2253C0.0540039 15.0014 0.0415039 14.6118 0.0415039 11.5003C0.0415039 8.38782 0.0550456 7.99824 0.110254 6.77741C0.165462 5.55657 0.360254 4.72324 0.642546 3.99408C0.930798 3.22958 1.38225 2.53711 1.96546 1.96491C2.53738 1.3821 3.2295 0.930996 3.99359 0.643034C4.72275 0.360742 5.55609 0.166992 6.77484 0.110742H6.77588ZM16.13 2.17324C14.9217 2.11803 14.5592 2.10658 11.4998 2.10658C8.44046 2.10658 8.07796 2.11803 6.86963 2.17324C5.75192 2.22428 5.14567 2.41074 4.7415 2.56803C4.20713 2.77637 3.82484 3.02324 3.4238 3.42428C3.04363 3.79413 2.75107 4.24437 2.56755 4.74199C2.41025 5.14616 2.2238 5.75241 2.17275 6.87012C2.11755 8.07845 2.10609 8.44095 2.10609 11.5003C2.10609 14.5597 2.11755 14.9222 2.17275 16.1305C2.2238 17.2482 2.41025 17.8545 2.56755 18.2587C2.75088 18.7555 3.04359 19.2066 3.4238 19.5764C3.79359 19.9566 4.24463 20.2493 4.7415 20.4326C5.14567 20.5899 5.75192 20.7764 6.86963 20.8274C8.07796 20.8826 8.43942 20.8941 11.4998 20.8941C14.5603 20.8941 14.9217 20.8826 16.13 20.8274C17.2478 20.7764 17.854 20.5899 18.2582 20.4326C18.7925 20.2243 19.1748 19.9774 19.5759 19.5764C19.9561 19.2066 20.2488 18.7555 20.4321 18.2587C20.5894 17.8545 20.7759 17.2482 20.8269 16.1305C20.8821 14.9222 20.8936 14.5597 20.8936 11.5003C20.8936 8.44095 20.8821 8.07845 20.8269 6.87012C20.7759 5.75241 20.5894 5.14616 20.4321 4.74199C20.2238 4.20762 19.9769 3.82533 19.5759 3.42428C19.206 3.04415 18.7558 2.75159 18.2582 2.56803C17.854 2.41074 17.2478 2.22428 16.13 2.17324ZM10.0363 15.0326C10.8536 15.3729 11.7638 15.4188 12.6112 15.1625C13.4587 14.9063 14.1909 14.3638 14.6828 13.6277C15.1747 12.8915 15.3957 12.0075 15.3082 11.1265C15.2207 10.2455 14.8301 9.42217 14.203 8.7972C13.8032 8.3977 13.3198 8.09179 12.7877 7.90152C12.2555 7.71124 11.6878 7.64132 11.1254 7.6968C10.5629 7.75227 10.0198 7.93176 9.53505 8.22233C9.05031 8.51291 8.63603 8.90735 8.32203 9.37725C8.00803 9.84716 7.80212 10.3808 7.71912 10.9399C7.63613 11.4989 7.67812 12.0694 7.84207 12.6102C8.00601 13.1511 8.28784 13.6489 8.66725 14.0677C9.04667 14.4866 9.51424 14.8161 10.0363 15.0326ZM7.33525 7.33574C7.88215 6.78884 8.53142 6.35502 9.24598 6.05903C9.96054 5.76305 10.7264 5.61071 11.4998 5.61071C12.2733 5.61071 13.0391 5.76305 13.7537 6.05903C14.4683 6.35501 15.1175 6.78884 15.6644 7.33574C16.2113 7.88264 16.6451 8.53191 16.9411 9.24647C17.2371 9.96103 17.3894 10.7269 17.3894 11.5003C17.3894 12.2738 17.2371 13.0396 16.9411 13.7542C16.6451 14.4687 16.2113 15.118 15.6644 15.6649C14.5599 16.7694 13.0619 17.3899 11.4998 17.3899C9.93781 17.3899 8.43977 16.7694 7.33525 15.6649C6.23074 14.5604 5.61023 13.0623 5.61023 11.5003C5.61023 9.9383 6.23074 8.44026 7.33525 7.33574ZM18.6957 6.48782C18.8312 6.35998 18.9397 6.20624 19.0147 6.03571C19.0898 5.86519 19.1298 5.68133 19.1326 5.49504C19.1353 5.30875 19.1006 5.12381 19.0305 4.95117C18.9605 4.77853 18.8565 4.62169 18.7248 4.48995C18.5931 4.35821 18.4362 4.25424 18.2636 4.1842C18.0909 4.11416 17.906 4.07947 17.7197 4.08218C17.5334 4.0849 17.3496 4.12496 17.179 4.20001C17.0085 4.27505 16.8548 4.38355 16.7269 4.51907C16.4783 4.78265 16.3422 5.13274 16.3474 5.49504C16.3527 5.85734 16.499 6.20332 16.7552 6.45954C17.0114 6.71575 17.3574 6.86202 17.7197 6.8673C18.082 6.87258 18.4321 6.73646 18.6957 6.48782Z"/>
</svg>
