<svg width="26" height="26" viewBox="0 0 26 26" fill="none" xmlns="http://www.w3.org/2000/svg">
<path fill-rule="evenodd" clip-rule="evenodd" d="M3.88387 10.3137L5.59325 12.0244C6.08894 12.5205 6.08894 13.3325 5.59325 13.8286L3.88387 15.5393C3.38818 16.0354 2.57684 16.0354 2.08114 15.5393L0.371772 13.8286C-0.123924 13.3325 -0.123924 12.5205 0.371772 12.0244L2.08114 10.3137C2.57684 9.81763 3.38707 9.81763 3.88387 10.3137Z" fill="#06A39C"/>
<path fill-rule="evenodd" clip-rule="evenodd" d="M3.88387 20.2555L5.59325 21.9662C6.08894 22.4623 6.08894 23.2742 5.59325 23.7703L3.88387 25.481C3.38818 25.9771 2.57684 25.9771 2.08114 25.481L0.371772 23.7703C-0.123924 23.2742 -0.123924 22.4623 0.371772 21.9662L2.08114 20.2555C2.57684 19.7583 3.38707 19.7583 3.88387 20.2555Z" fill="#06A39C"/>
<path fill-rule="evenodd" clip-rule="evenodd" d="M13.8165 0.372062L15.5259 2.08277C16.0216 2.57885 16.0216 3.39083 15.5259 3.88692L13.8165 5.59763C13.3208 6.09371 12.5095 6.09371 12.0138 5.59763L10.3044 3.88692C9.80869 3.39083 9.80869 2.57885 10.3044 2.08277L12.0138 0.372062C12.5106 -0.124021 13.3208 -0.124021 13.8165 0.372062Z" fill="#30D2A3"/>
<path fill-rule="evenodd" clip-rule="evenodd" d="M13.8165 10.3137L15.5259 12.0244C16.0216 12.5205 16.0216 13.3325 15.5259 13.8286L13.8165 15.5393C13.3208 16.0354 12.5095 16.0354 12.0138 15.5393L10.3044 13.8286C9.80869 13.3325 9.80869 12.5205 10.3044 12.0244L12.0138 10.3137C12.5106 9.81763 13.3208 9.81763 13.8165 10.3137Z" fill="#30D2A3"/>
<path fill-rule="evenodd" clip-rule="evenodd" d="M13.8165 20.2555L15.5259 21.9662C16.0216 22.4623 16.0216 23.2742 15.5259 23.7703L13.8165 25.481C13.3208 25.9771 12.5095 25.9771 12.0138 25.481L10.3044 23.7703C9.80869 23.2742 9.80869 22.4623 10.3044 21.9662L12.0138 20.2555C12.5106 19.7583 13.3208 19.7583 13.8165 20.2555Z" fill="#06A39C"/>
<path fill-rule="evenodd" clip-rule="evenodd" d="M23.7511 0.372062L25.4604 2.08277C25.9561 2.57885 25.9561 3.39083 25.4604 3.88692L23.7511 5.59763C23.2554 6.09371 22.444 6.09371 21.9483 5.59763L20.239 3.88692C19.7433 3.39083 19.7433 2.57885 20.239 2.08277L21.9483 0.372062C22.444 -0.124021 23.2554 -0.124021 23.7511 0.372062Z" fill="#30D2A3"/>
<path fill-rule="evenodd" clip-rule="evenodd" d="M23.7511 10.3137L25.4604 12.0244C25.9561 12.5205 25.9561 13.3325 25.4604 13.8286L23.7511 15.5393C23.2554 16.0354 22.444 16.0354 21.9483 15.5393L20.239 13.8286C19.7433 13.3325 19.7433 12.5205 20.239 12.0244L21.9483 10.3137C22.444 9.81763 23.2554 9.81763 23.7511 10.3137Z" fill="#30D2A3"/>
<path fill-rule="evenodd" clip-rule="evenodd" d="M23.7511 20.2555L25.4604 21.9662C25.9561 22.4623 25.9561 23.2742 25.4604 23.7703L23.7511 25.481C23.2554 25.9771 22.444 25.9771 21.9483 25.481L20.239 23.7703C19.7433 23.2742 19.7433 22.4623 20.239 21.9662L21.9483 20.2555C22.444 19.7583 23.2554 19.7583 23.7511 20.2555Z" fill="#06A39C"/>
<path fill-rule="evenodd" clip-rule="evenodd" d="M3.88387 0.372062L5.59325 2.08277C6.08894 2.57885 6.08894 3.39083 5.59325 3.88692L3.88387 5.59763C3.38818 6.09371 2.57684 6.09371 2.08114 5.59763L0.371772 3.88692C-0.123924 3.39083 -0.123924 2.57885 0.371772 2.08277L2.08114 0.372062C2.57684 -0.124021 3.38707 -0.124021 3.88387 0.372062Z" fill="#30D2A3"/>
</svg>
