<svg width="108" height="88" viewBox="0 0 108 88" fill="none" xmlns="http://www.w3.org/2000/svg">
<path fill-rule="evenodd" clip-rule="evenodd" d="M0.643066 72.8769C0.643066 72.6305 0.7625 72.5073 1.00279 72.5073H2.19144C2.2751 72.5082 2.3574 72.5285 2.43173 72.5668C2.52302 72.6201 2.59553 72.7002 2.63932 72.7962L8.07073 82.5925L8.41908 83.5398L8.30959 82.5811L8.22286 72.8769C8.21973 72.7803 8.25266 72.6859 8.31528 72.6121C8.35187 72.5746 8.39639 72.5458 8.44558 72.5277C8.49477 72.5096 8.54741 72.5026 8.59965 72.5073H9.821C9.9121 72.5038 10.0013 72.534 10.0712 72.5922C10.1066 72.6282 10.1337 72.6714 10.1507 72.7188C10.1676 72.7663 10.174 72.8168 10.1694 72.867V86.3719C10.1694 86.6113 10.0428 86.7316 9.7883 86.7316H8.63235C8.54561 86.7301 8.46004 86.7113 8.38069 86.6764C8.28525 86.6315 8.21124 86.5512 8.17452 86.4527L2.77155 76.7965L2.38908 75.8195L2.50994 76.8107L2.57534 86.3663C2.57534 86.6127 2.45875 86.7359 2.22557 86.7359H1.00421C0.763921 86.7359 0.644487 86.6127 0.644487 86.3663L0.643066 72.8769Z" fill="#0E1624"/>
<path fill-rule="evenodd" clip-rule="evenodd" d="M14.4345 82.1519H18.2621L16.5203 75.907L16.3554 74.8492L16.1905 75.907L14.4345 82.1519ZM21.5579 86.3576C21.5808 86.4004 21.5915 86.4486 21.5887 86.4971C21.586 86.5455 21.5699 86.5923 21.5422 86.6323C21.512 86.668 21.4737 86.6961 21.4304 86.7143C21.3872 86.7325 21.3403 86.7403 21.2934 86.7371H19.8716C19.787 86.7362 19.7038 86.7159 19.6285 86.6776C19.5855 86.654 19.5484 86.6212 19.5199 86.5815C19.4913 86.5418 19.4721 86.4963 19.4635 86.4482L18.7242 83.8256H13.961L13.2331 86.4482C13.224 86.4963 13.2043 86.5417 13.1756 86.5814C13.1468 86.621 13.1097 86.6539 13.0667 86.6776C12.9919 86.716 12.9091 86.7364 12.825 86.7371H11.4032C11.3574 86.7403 11.3115 86.7325 11.2694 86.7142C11.2273 86.696 11.1902 86.6679 11.1614 86.6323C11.1345 86.5922 11.1182 86.5459 11.1142 86.4979C11.1103 86.4498 11.1187 86.4015 11.1387 86.3576L15.3402 72.8214C15.3645 72.726 15.4213 72.6419 15.5009 72.5835C15.5705 72.5365 15.6528 72.5118 15.7369 72.5127H16.9611C17.0473 72.5124 17.1318 72.537 17.2042 72.5835C17.2854 72.6412 17.3438 72.7254 17.3692 72.8214L21.5579 86.3576Z" fill="#0E1624"/>
<path fill-rule="evenodd" clip-rule="evenodd" d="M27.2568 72.8858C27.2508 72.8322 27.2572 72.7779 27.2754 72.7271C27.2937 72.6763 27.3233 72.6303 27.362 72.5926C27.4231 72.5393 27.5011 72.5092 27.5824 72.5077H28.8393C28.8921 72.5021 28.9454 72.5093 28.9949 72.5285C29.0444 72.5477 29.0885 72.5784 29.1236 72.6181C29.181 72.7105 29.2084 72.8184 29.2018 72.9268L29.1919 84.0018C29.2005 84.5222 29.1038 85.039 28.9075 85.5213C28.7322 85.9538 28.469 86.3456 28.1346 86.6721C27.8001 86.9986 27.4016 87.2528 26.9639 87.4188C26.5046 87.5934 26.0165 87.6804 25.525 87.6751C24.9881 87.676 24.4565 87.5706 23.9609 87.365C23.4938 87.1815 23.0732 86.8971 22.7296 86.5323C22.6553 86.4544 22.5981 86.3618 22.5619 86.2605C22.5417 86.2058 22.539 86.1463 22.554 86.0901C22.569 86.0338 22.601 85.9836 22.6458 85.9461L23.3268 85.1488C23.3602 85.1069 23.404 85.0743 23.4538 85.0542C23.5037 85.0341 23.5579 85.0272 23.6112 85.0341C23.7113 85.0585 23.8013 85.1134 23.8685 85.1913C24.0588 85.362 24.2723 85.505 24.5027 85.6162C24.791 85.7566 25.1088 85.8265 25.4297 85.8201C25.6823 85.8226 25.9326 85.7709 26.1634 85.6685C26.3839 85.5693 26.5806 85.4245 26.7406 85.2437C26.9079 85.0501 27.0359 84.826 27.1174 84.5838C27.2127 84.3107 27.2608 84.0234 27.2596 83.7342L27.2568 72.8858Z" fill="#0E1624"/>
<path fill-rule="evenodd" clip-rule="evenodd" d="M34.1145 82.8983C34.1114 83.2967 34.1704 83.6932 34.2893 84.0736C34.3965 84.4205 34.573 84.7423 34.8083 85.0195C35.0431 85.2901 35.3342 85.5065 35.6614 85.6539C36.0303 85.8153 36.4302 85.8945 36.833 85.8861C37.2372 85.8942 37.6383 85.815 38.0089 85.6539C38.3356 85.5057 38.6265 85.2894 38.862 85.0195C39.0998 84.7448 39.2784 84.4242 39.3866 84.0778C39.5059 83.6994 39.5649 83.3048 39.5615 82.9082V77.4889C39.564 77.0952 39.503 76.7036 39.3809 76.3291C39.2687 75.9823 39.0906 75.6603 38.8563 75.3804C38.6222 75.1069 38.3311 74.8875 38.0032 74.7375C37.6337 74.5725 37.2321 74.4912 36.8273 74.4996C36.4264 74.4924 36.0287 74.5716 35.6614 74.7318C35.3333 74.8796 35.042 75.0977 34.8083 75.3705C34.5736 75.6508 34.3972 75.9747 34.2893 76.3235C34.1709 76.7006 34.1119 77.0938 34.1145 77.4889V82.8983ZM32.1537 77.6305C32.1499 76.9871 32.2503 76.3474 32.4509 75.7358C32.6383 75.1604 32.939 74.628 33.3353 74.1697C33.739 73.7128 34.2384 73.3498 34.7984 73.1062C36.0973 72.587 37.5474 72.587 38.8463 73.1062C39.4049 73.3516 39.9046 73.7127 40.3122 74.1654C40.7158 74.6183 41.0225 75.1483 41.2137 75.7231C41.4194 76.3346 41.5231 76.9756 41.5208 77.6206V82.7779C41.5245 83.4216 41.4227 84.0616 41.2194 84.6726C41.0281 85.2461 40.7235 85.7757 40.3236 86.2302C39.9154 86.6851 39.4128 87.046 38.8506 87.288C38.2111 87.5576 37.5216 87.6894 36.8273 87.6746C36.1359 87.689 35.4494 87.5557 34.814 87.2838C34.2547 87.0414 33.7539 86.6827 33.3452 86.2317C32.9452 85.7775 32.641 85.2477 32.4509 84.674C32.2464 84.0632 32.1441 83.4231 32.1481 82.7793L32.1537 77.6305Z" fill="#0E1624"/>
<path fill-rule="evenodd" clip-rule="evenodd" d="M42.5355 72.8469C42.5319 72.8009 42.5376 72.7546 42.5523 72.7108C42.5669 72.667 42.5902 72.6266 42.6208 72.592C42.6485 72.5638 42.6817 72.5417 42.7184 72.5271C42.7552 72.5125 42.7945 72.5056 42.8341 72.507H50.8163C50.8544 72.5068 50.8921 72.5142 50.9273 72.5288C50.9625 72.5434 50.9943 72.5649 51.021 72.592C51.0817 72.6625 51.1119 72.7542 51.1049 72.8469V73.9542C51.109 73.9984 51.1037 74.043 51.0893 74.085C51.0748 74.127 51.0515 74.1654 51.021 74.1978C50.9646 74.2474 50.8915 74.2742 50.8163 74.2728H47.7408V86.3915C47.7477 86.4834 47.7192 86.5745 47.6612 86.6464C47.6345 86.6746 47.602 86.6969 47.566 86.7115C47.5299 86.7262 47.4911 86.7329 47.4522 86.7314H46.1981C46.1577 86.7335 46.1172 86.7271 46.0794 86.7125C46.0417 86.6978 46.0075 86.6753 45.9792 86.6464C45.9212 86.5745 45.8927 86.4834 45.8996 86.3915V74.2728H42.8341C42.7924 74.2753 42.7506 74.2685 42.7119 74.253C42.6731 74.2376 42.6382 74.2138 42.6097 74.1833C42.5812 74.1529 42.5597 74.1166 42.5469 74.077C42.5341 74.0374 42.5302 73.9955 42.5355 73.9542V72.8469Z" fill="#0E1624"/>
<path fill-rule="evenodd" clip-rule="evenodd" d="M56.8182 72.8469C56.8112 72.7542 56.8414 72.6626 56.9021 72.592C56.9299 72.5637 56.9634 72.5415 57.0004 72.5268C57.0374 72.5122 57.077 72.5055 57.1168 72.5071H65.099C65.1369 72.5065 65.1746 72.5137 65.2096 72.5283C65.2446 72.5429 65.2761 72.5646 65.3023 72.592C65.3329 72.6267 65.3562 72.6671 65.3708 72.7109C65.3855 72.7547 65.3912 72.8009 65.3876 72.8469V73.9543C65.392 73.9986 65.3866 74.0433 65.3718 74.0854C65.3571 74.1275 65.3334 74.1658 65.3023 74.1978C65.2466 74.2477 65.1739 74.2746 65.099 74.2729H62.0235V86.3915C62.0304 86.4835 62.0019 86.5746 61.9439 86.6464C61.9171 86.6745 61.8846 86.6965 61.8485 86.7112C61.8125 86.7258 61.7738 86.7327 61.7349 86.7314H60.4808C60.4404 86.7336 60.3999 86.7272 60.3621 86.7125C60.3244 86.6978 60.2902 86.6753 60.2619 86.6464C60.2032 86.5749 60.1747 86.4836 60.1823 86.3915V74.2729H57.1168C57.0751 74.2753 57.0334 74.2685 56.9946 74.2531C56.9558 74.2376 56.9209 74.2138 56.8924 74.1834C56.8639 74.153 56.8425 74.1167 56.8296 74.0771C56.8168 74.0375 56.8129 73.9955 56.8182 73.9543V72.8469Z" fill="#0E1624"/>
<path fill-rule="evenodd" clip-rule="evenodd" d="M67.7533 82.1519H71.5809L69.8392 75.907L69.6742 74.8492L69.5079 75.907L67.7533 82.1519ZM74.8767 86.3576C74.9 86.4003 74.9108 86.4486 74.908 86.4971C74.9053 86.5456 74.889 86.5924 74.8611 86.6323C74.8308 86.668 74.7925 86.6961 74.7493 86.7143C74.706 86.7325 74.6591 86.7403 74.6123 86.7371H73.1904C73.1059 86.7362 73.0227 86.7159 72.9473 86.6776C72.9046 86.6538 72.8676 86.6209 72.8391 86.5812C72.8106 86.5416 72.7912 86.4962 72.7824 86.4482L72.043 83.8256H67.2799L66.5519 86.4482C66.5428 86.4963 66.5232 86.5417 66.4944 86.5814C66.4657 86.621 66.4285 86.6539 66.3855 86.6776C66.3107 86.7158 66.2279 86.7362 66.1438 86.7371H64.722C64.6762 86.7403 64.6303 86.7325 64.5882 86.7142C64.5461 86.696 64.5091 86.6679 64.4803 86.6323C64.4533 86.5922 64.4371 86.5459 64.4331 86.4979C64.4291 86.4498 64.4375 86.4015 64.4575 86.3576L68.6591 72.8214C68.6833 72.726 68.7401 72.6419 68.8197 72.5835C68.8893 72.5365 68.9717 72.5118 69.0557 72.5127H70.2799C70.3662 72.5124 70.4506 72.537 70.5231 72.5835C70.6043 72.6412 70.6627 72.7254 70.688 72.8214L74.8767 86.3576Z" fill="#0E1624"/>
<path fill-rule="evenodd" clip-rule="evenodd" d="M76.8118 72.986C76.8057 72.864 76.8369 72.743 76.9014 72.639C76.9303 72.5959 76.9701 72.5611 77.0167 72.5379C77.0633 72.5148 77.1152 72.5043 77.1672 72.5074H78.3616C78.599 72.5074 78.717 72.6674 78.717 72.986V74.9302C78.7227 75.1422 78.6875 75.3532 78.6132 75.5519C78.5534 75.7114 78.4598 75.8563 78.3388 75.9767C78.2252 76.085 78.0901 76.1685 77.9421 76.2217C77.7952 76.2738 77.6403 76.3006 77.4843 76.301C77.4458 76.3061 77.4065 76.3023 77.3697 76.2899C77.3328 76.2775 77.2993 76.2568 77.2718 76.2294C77.2443 76.202 77.2235 76.1686 77.2111 76.1319C77.1986 76.0952 77.1948 76.0562 77.1999 76.0178V75.5505C77.1954 75.5138 77.2003 75.4767 77.2143 75.4425C77.2282 75.4083 77.2507 75.3782 77.2796 75.3551C77.3375 75.3163 77.4061 75.2965 77.4758 75.2984C77.5105 75.3019 77.5456 75.2963 77.5776 75.2822C77.6095 75.268 77.6371 75.2458 77.6578 75.2177C77.6956 75.1484 77.7134 75.0699 77.709 74.9911C77.7149 74.9182 77.7001 74.8451 77.6663 74.7801C77.6483 74.7573 77.6247 74.7395 77.5979 74.7284C77.571 74.7172 77.5417 74.7131 77.5127 74.7164H77.1374C77.0947 74.7173 77.0523 74.7086 77.0134 74.691C76.9745 74.6733 76.9401 74.6472 76.9127 74.6145C76.8418 74.5197 76.8085 74.4022 76.8189 74.2845L76.8118 72.986Z" fill="#0E1624"/>
<path fill-rule="evenodd" clip-rule="evenodd" d="M81.5737 72.8774C81.5737 72.631 81.6804 72.5078 81.8951 72.5078H83.0567C83.2714 72.5078 83.378 72.631 83.378 72.8774V84.9762H87.935C87.9772 84.9731 88.0196 84.9794 88.059 84.9947C88.0984 85.0099 88.1339 85.0338 88.163 85.0644C88.192 85.0951 88.2137 85.1318 88.2267 85.1719C88.2397 85.212 88.2435 85.2545 88.2379 85.2963V86.3923C88.2453 86.4848 88.2156 86.5764 88.1554 86.6472C88.1266 86.6758 88.0921 86.6982 88.0542 86.7128C88.0162 86.7274 87.9757 86.734 87.935 86.7322H81.8951C81.6804 86.7322 81.5737 86.6089 81.5737 86.3626V72.8774Z" fill="#0E1624"/>
<path fill-rule="evenodd" clip-rule="evenodd" d="M90.1416 72.8774C90.1416 72.631 90.2582 72.5078 90.4928 72.5078H91.717C91.9359 72.5078 92.0469 72.631 92.0469 72.8774V86.3626C92.0469 86.6089 91.9359 86.7322 91.717 86.7322H90.4928C90.2582 86.7322 90.1416 86.6089 90.1416 86.3626V72.8774Z" fill="#0E1624"/>
<path fill-rule="evenodd" clip-rule="evenodd" d="M97.8598 77.2072L97.4816 75.8648L97.6124 77.1959L97.6963 87.0404C97.7105 87.2882 97.6053 87.4114 97.3807 87.4114H96.1536C96.1094 87.4165 96.0647 87.4096 96.0241 87.3914C95.9836 87.3732 95.9487 87.3444 95.9233 87.308C95.8767 87.2211 95.8551 87.1231 95.8607 87.0248V73.0284C95.8619 72.9384 95.8928 72.8513 95.9489 72.7806C95.9772 72.7493 96.0122 72.7246 96.0513 72.7084C96.0904 72.6923 96.1327 72.685 96.175 72.6872H97.6537C97.6904 72.6837 97.7275 72.6895 97.7615 72.7038C97.7954 72.7181 97.8253 72.7406 97.8485 72.7693C97.8947 72.8403 97.9315 72.9169 97.9579 72.9973L101.404 81.9949L101.572 82.8446L101.74 81.978L105.206 72.9916C105.234 72.9115 105.27 72.8349 105.316 72.7636C105.339 72.7352 105.369 72.7128 105.403 72.6985C105.437 72.6842 105.474 72.6783 105.511 72.6815H106.971C107.013 72.6795 107.055 72.6869 107.094 72.7031C107.133 72.7192 107.167 72.7438 107.196 72.775C107.251 72.8462 107.281 72.933 107.284 73.0228V87.0248C107.298 87.2783 107.204 87.4057 106.999 87.4057H105.768C105.56 87.4057 105.455 87.2825 105.455 87.0347L105.549 77.2016L105.664 75.9002L105.307 77.2016L102.371 84.8058C102.351 84.896 102.307 84.9795 102.245 85.048C102.19 85.0951 102.118 85.1195 102.046 85.1159H101.102C101.033 85.1187 100.965 85.0943 100.914 85.048C100.852 84.9795 100.808 84.896 100.787 84.8058L97.8598 77.2072Z" fill="#0E1624"/>
<path fill-rule="evenodd" clip-rule="evenodd" d="M75.1061 28.9549L75.0335 17.5981C77.6796 16.1155 80.4465 14.7065 83.3598 13.357V25.2122C80.3896 26.3861 77.6312 27.6578 75.1132 28.9549H75.1061ZM73.0401 40.9617C71.8079 38.8848 70.441 36.8032 68.9396 34.7168C70.2007 33.9238 71.5643 33.1082 73.0259 32.2897L73.0401 40.9617ZM53.8653 63.3269C51.0842 60.9749 39.7166 51.2239 34.7985 44.8856C36.627 41.6579 38.5701 38.5548 40.628 35.5764C42.5546 36.9401 44.2935 38.2825 45.7978 39.5286C44.4158 41.1967 43.0489 42.9347 41.6972 44.7426L41.1712 45.4506L53.9392 57.2761L66.5381 45.343L65.9921 44.642C64.6651 42.9314 63.2906 41.2642 61.8688 39.6405C63.2906 38.5473 64.9058 37.3748 66.6959 36.1768C66.895 36.0418 67.0978 35.9068 67.3045 35.7718C69.3715 38.6414 71.2554 41.6375 72.9449 44.7426C68.0481 51.2918 56.6549 60.9919 53.8681 63.3284L53.8653 63.3269ZM39.0327 34.4704C37.4914 36.6965 36.018 38.9825 34.6122 41.3284V31.6893C36.2047 32.6225 37.6834 33.5613 39.0327 34.4704ZM26.6628 25.4685C25.7262 25.0692 24.7864 24.6916 23.8433 24.3357L23.7906 13.4872C26.8106 14.8637 29.7652 16.3859 32.6544 18.054V28.3417C30.6714 27.2882 28.6742 26.3304 26.6628 25.4685ZM34.608 4.22761C40.7618 8.64544 46.6176 13.461 52.1378 18.6431C51.1197 19.6712 50.1244 20.7148 49.1519 21.774C48.204 22.8125 47.2718 23.8674 46.3552 24.9389C42.6186 22.0171 38.6955 19.3398 34.6108 16.924L34.608 4.22761ZM62.1318 26.1893C65.5825 23.4707 69.2157 20.9901 73.006 18.7649L73.0231 30.058C71.1207 31.0946 69.369 32.1325 67.7822 33.1337C66.0513 30.8189 64.1679 28.506 62.1318 26.195V26.1893ZM54.9985 32.4398C56.8203 30.6754 58.6952 28.9978 60.6233 27.4071C62.6081 29.6606 64.4485 31.922 66.1442 34.1915L65.6068 34.5483C63.7257 35.81 62.0408 37.0335 60.5621 38.172C58.7706 36.1895 56.9161 34.2788 54.9985 32.4398ZM47.2921 40.7946C50.8752 43.8901 52.8799 46.1402 52.9098 46.1756L53.6207 46.9799L54.3544 46.1969C54.3843 46.1643 56.4871 43.9439 60.3261 40.854C61.5517 42.2531 62.7442 43.6852 63.9034 45.1504L53.9236 54.5955L43.7916 45.2113C44.9461 43.6848 46.113 42.2111 47.2921 40.7903V40.7946ZM59.0209 39.387C56.4061 41.4899 54.5975 43.1905 53.6634 44.111C52.7634 43.1665 51.0301 41.429 48.5576 39.2964C50.205 37.379 51.8885 35.5533 53.6079 33.8191C55.4715 35.6052 57.2758 37.4612 59.0209 39.387ZM59.3152 25.95C57.3417 27.5813 55.4274 29.2976 53.5724 31.0988C51.724 29.3825 49.823 27.7342 47.8694 26.1539C49.6827 24.0251 51.5714 21.9694 53.5354 19.987C55.5696 21.961 57.4962 23.9477 59.3152 25.9472V25.95ZM46.6111 27.6493C48.5173 29.1899 50.3747 30.7977 52.1833 32.4724C50.4372 34.2368 48.731 36.0904 47.0646 38.0333C45.5191 36.7588 43.7418 35.3824 41.7555 33.9776C43.3091 31.8064 44.9286 29.6969 46.6139 27.6493H46.6111ZM40.1531 32.8731C38.3284 31.6393 36.48 30.4899 34.608 29.425V19.2081C38.2438 21.4118 41.7458 23.8276 45.0954 26.4428C43.3892 28.5197 41.7418 30.6627 40.1531 32.8717V32.8731ZM72.9818 4.12707L73.0017 16.5006C68.7428 18.9379 64.6722 21.688 60.8237 24.7279C59.9991 23.8188 59.1512 22.9116 58.2801 22.0063C57.19 20.8734 56.0658 19.7453 54.9075 18.6219C60.4519 13.2245 66.5045 8.3706 72.9818 4.12707ZM9.88511 22.703C13.9813 23.3063 18.0067 24.3162 21.901 25.7178L21.9565 37.8293L9.88511 22.703ZM85.3177 26.5547C89.3272 25.0358 93.4492 23.8295 97.6464 22.9465L85.3134 38.029L85.3177 26.5547ZM102.522 20.0677L99.9384 20.5152C94.9534 21.3891 90.0583 22.712 85.3134 24.4674V10.3223L83.9371 10.9426C80.809 12.3501 77.8459 13.82 75.0193 15.3678L74.9241 0.547269L73.4269 1.50594C66.2646 6.07323 59.5911 11.3596 53.5112 17.2823C47.7713 11.8446 41.2991 6.56412 34.1985 1.53143L32.6544 0.445312V15.8011C29.5834 14.0705 26.4272 12.4943 23.1977 11.0785L21.8285 10.4767L21.8925 23.6291C17.3085 22.0341 12.5544 20.973 7.72535 20.467L5.40918 20.2305L23.9371 43.4355L23.8546 26.4428C26.8744 27.6289 29.8138 29.0087 32.6544 30.5734V45.2863L32.8463 45.5455C38.2948 52.8934 52.6297 64.8492 53.2383 65.3533L53.8582 65.8702L54.4809 65.3576C55.0895 64.8577 69.4329 53.0265 74.8871 45.3911L75.2084 44.8417L75.1203 31.1498C77.627 29.83 80.3811 28.5244 83.3669 27.3179V43.5077L102.522 20.0677Z" fill="#BC8F5B"/>
</svg>
