<svg width="40" height="45" viewBox="0 0 40 45" fill="none" xmlns="http://www.w3.org/2000/svg">
<path d="M20 44.9998C19.3789 44.9998 18.7992 44.8345 18.2609 44.5451L12.7536 41.2791C11.9255 40.8244 12.3395 40.659 12.588 40.5764C13.7059 40.2043 13.913 40.1216 15.0723 39.46C15.1967 39.3773 15.3623 39.4187 15.4864 39.5014L19.7102 42.0232C19.8758 42.1059 20.0828 42.1059 20.207 42.0232L36.7289 32.4735C36.8945 32.3908 36.9773 32.2254 36.9773 32.0187V12.9603C36.9773 12.7536 36.8945 12.5882 36.7289 12.5055L20.207 2.99696C20.0414 2.91428 19.8344 2.91428 19.7102 2.99696L3.18828 12.5057C3.02266 12.5884 2.93984 12.7951 2.93984 12.9604V32.0187C2.93984 32.1841 3.02266 32.3908 3.18828 32.4735L7.70187 35.0779C10.145 36.3181 11.6769 34.8712 11.6769 33.4243V14.6139C11.6769 14.3658 11.8841 14.1178 12.1739 14.1178H14.2858C14.5342 14.1178 14.7827 14.3245 14.7827 14.6139V33.4241C14.7827 36.6901 13.002 38.5917 9.89641 38.5917C8.94406 38.5917 8.19875 38.5917 6.08703 37.5583L1.73906 35.0779C0.6625 34.4576 0 33.3001 0 32.0599V13.0018C0 11.7616 0.6625 10.6041 1.73906 9.98382L18.2609 0.434066C19.2961 -0.144689 20.7039 -0.144689 21.7391 0.434066L38.2609 9.98382C39.3375 10.6039 40 11.7614 40 13.0018V32.0601C40 33.3003 39.3375 34.4578 38.2609 35.0779L21.7391 44.6279C21.2008 44.876 20.5797 45 20 45V44.9998ZM25.0931 31.8946C17.8467 31.8946 16.3561 28.5874 16.3561 25.7762C16.3561 25.5281 16.5631 25.2801 16.853 25.2801H19.0061C19.2545 25.2801 19.4617 25.4454 19.4617 25.6935C19.793 27.8845 20.7453 28.9595 25.1345 28.9595C28.6128 28.9595 30.1036 28.174 30.1036 26.3137C30.1036 25.2387 29.6895 24.4533 24.265 23.9157C19.7516 23.461 16.9358 22.4688 16.9358 18.8723C16.9358 15.5235 19.7514 13.5392 24.472 13.5392C29.7722 13.5392 32.3809 15.3581 32.7122 19.3269C32.7122 19.4509 32.6708 19.5749 32.588 19.6989C32.5052 19.7816 32.3809 19.8643 32.2567 19.8643H30.1036C29.8964 19.8643 29.6895 19.6989 29.648 19.4922C29.1511 17.2186 27.8675 16.4744 24.472 16.4744C20.6627 16.4744 20.207 17.7973 20.207 18.7895C20.207 19.9885 20.7453 20.3604 25.8798 21.0218C30.9731 21.6832 33.3747 22.6342 33.3747 26.1896C33.3333 29.8276 30.352 31.8946 25.0931 31.8946Z" fill="#2CA631"/>
</svg>
