<svg width="17" height="16" viewBox="0 0 17 16" fill="none" xmlns="http://www.w3.org/2000/svg">
<path fill-rule="evenodd" clip-rule="evenodd" d="M12.7696 14.4C6.64258 14.4 1.6582 9.59036 1.6582 3.67996C1.6582 2.53276 2.62506 1.59996 3.81415 1.59996C3.90453 1.59996 3.99408 1.60556 4.0853 1.61676L4.96509 5.31356C4.85628 5.36817 4.73983 5.42693 4.62625 5.48424L4.51897 5.53836C3.8042 5.89836 3.24033 6.18316 3.53636 6.81116C4.51151 9.48796 6.74955 11.648 9.49091 12.576C10.1893 12.846 10.4604 12.346 10.8351 11.6547L10.84 11.6456C10.8831 11.5669 10.9274 11.4849 10.9712 11.4037L10.9714 11.4034L10.9715 11.4031C11.007 11.3374 11.0423 11.2721 11.0764 11.2096L14.9073 12.0576C14.9197 12.144 14.9255 12.2312 14.9255 12.32C14.9255 13.4672 13.9587 14.4 12.7696 14.4ZM16.3777 11.1264C16.284 10.8664 16.0585 10.6712 15.7798 10.6096L10.8344 9.5144C10.5616 9.4552 10.2764 9.5296 10.0749 9.7168C9.95631 9.8256 9.95382 9.8288 9.41484 10.8216C7.64862 10.0456 6.20165 8.6544 5.36913 6.9152C6.39652 6.396 6.39901 6.3936 6.51261 6.28C6.70664 6.0848 6.78459 5.8096 6.7224 5.5472L5.58721 0.776C5.52336 0.5072 5.3202 0.2888 5.05071 0.1984C4.85336 0.1328 4.6502 0.0832 4.44954 0.052C4.24306 0.0176 4.02996 0 3.81436 0C1.71066 0 0 1.6504 0 3.68C0 10.4736 5.72818 16 12.7698 16C14.8727 16 16.5842 14.3496 16.5842 12.32C16.5842 12.1136 16.5651 11.9096 16.5303 11.7112C16.4971 11.5112 16.4457 11.3152 16.3777 11.1264ZM9.1212 4.80004C10.4927 4.80004 11.6088 5.87684 11.6088 7.20004C11.6088 7.64244 11.9795 8.00004 12.438 8.00004C12.8966 8.00004 13.2672 7.64244 13.2672 7.20004C13.2672 4.99444 11.4073 3.20004 9.1212 3.20004C8.66348 3.20004 8.29199 3.55764 8.29199 4.00004C8.29199 4.44244 8.66348 4.80004 9.1212 4.80004ZM14.9254 7.2C14.9254 4.1128 12.3209 1.6 9.12097 1.6C8.66325 1.6 8.29177 1.2424 8.29177 0.8C8.29177 0.3576 8.66325 0 9.12097 0C13.2363 0 16.5839 3.2296 16.5839 7.2C16.5839 7.6424 16.2132 8 15.7546 8C15.2961 8 14.9254 7.6424 14.9254 7.2Z" fill="#00094A"/>
</svg>
