<svg width="47" height="45" viewBox="0 0 47 45" fill="none" xmlns="http://www.w3.org/2000/svg">
<path d="M8.32292 0H38.6771C43.2792 0 47 3.65385 47 8.17308V36.8269C47 41.3462 43.2792 45 38.6771 45H8.32292C3.72083 45 0 41.3462 0 36.8269V8.17308C0 3.65385 3.72083 0 8.32292 0Z" fill="#001E36"/>
<path d="M10.5752 31.5578V11.7693C10.5752 11.6347 10.6339 11.5578 10.771 11.5578C11.1039 11.5578 11.4173 11.5578 11.8677 11.5385C12.3377 11.5193 12.8273 11.5193 13.356 11.5001C13.8848 11.4808 14.4527 11.4808 15.0598 11.4616C15.6669 11.4424 16.2544 11.4424 16.8419 11.4424C18.4477 11.4424 19.7794 11.6347 20.876 12.0385C21.8552 12.3655 22.756 12.9039 23.5002 13.6155C24.1269 14.2308 24.6164 14.9808 24.9298 15.8078C25.2235 16.6155 25.3802 17.4424 25.3802 18.3078C25.3802 19.9616 24.9885 21.327 24.2052 22.4039C23.4219 23.4808 22.3252 24.2885 21.0523 24.7501C19.7206 25.2308 18.2519 25.4039 16.646 25.4039C16.176 25.4039 15.8627 25.4039 15.6669 25.3847C15.471 25.3655 15.1969 25.3655 14.8248 25.3655V31.5385C14.8444 31.6732 14.7464 31.7885 14.6094 31.8078C14.5898 31.8078 14.5702 31.8078 14.531 31.8078H10.8102C10.6535 31.8078 10.5752 31.7308 10.5752 31.5578ZM14.8444 15.2693V21.7308C15.1185 21.7501 15.3731 21.7693 15.6081 21.7693H16.646C17.4098 21.7693 18.1735 21.6539 18.8981 21.4232C19.5248 21.2501 20.0731 20.8847 20.5039 20.4039C20.9152 19.9232 21.111 19.2693 21.111 18.4232C21.1306 17.827 20.9739 17.2308 20.6606 16.7116C20.3277 16.2116 19.8577 15.827 19.2898 15.6155C18.5652 15.327 17.7819 15.2116 16.9789 15.2308C16.4698 15.2308 16.0194 15.2308 15.6473 15.2501C15.2556 15.2308 14.9814 15.2501 14.8444 15.2693Z" fill="#31A8FF"/>
<path d="M37.6002 20.5581C37.0127 20.2504 36.3861 20.0388 35.7202 19.9042C34.9956 19.7504 34.2711 19.6542 33.5269 19.6542C33.1352 19.635 32.724 19.6927 32.3519 19.7888C32.0973 19.8465 31.8819 19.9811 31.7448 20.1735C31.6469 20.3273 31.5881 20.5196 31.5881 20.6927C31.5881 20.8658 31.6665 21.0388 31.784 21.1927C31.9602 21.4042 32.1952 21.5773 32.4498 21.7119C32.9002 21.9427 33.3702 22.1542 33.8402 22.3465C34.8977 22.6927 35.9161 23.1735 36.8561 23.7504C37.5023 24.1542 38.0311 24.6927 38.4031 25.3465C38.7165 25.9619 38.8731 26.635 38.8536 27.3273C38.8731 28.2312 38.599 29.135 38.0898 29.885C37.5415 30.6542 36.7777 31.2504 35.8965 31.5965C34.9369 32.0004 33.7619 32.2119 32.3519 32.2119C31.4511 32.2119 30.5698 32.135 29.6886 31.9619C29.0031 31.8465 28.3177 31.635 27.6911 31.3465C27.554 31.2696 27.4561 31.135 27.4756 30.9812V27.635C27.4756 27.5773 27.4952 27.5004 27.554 27.4619C27.6127 27.4235 27.6715 27.4427 27.7302 27.4811C28.494 27.9235 29.2969 28.2311 30.1586 28.4235C30.9027 28.6158 31.6861 28.7119 32.4694 28.7119C33.2136 28.7119 33.7423 28.6158 34.0948 28.4427C34.4081 28.3081 34.6236 27.9811 34.6236 27.635C34.6236 27.3658 34.4669 27.1158 34.1536 26.8658C33.8402 26.6158 33.194 26.3273 32.2344 25.9619C31.2356 25.6158 30.3152 25.1542 29.4536 24.5773C28.8465 24.1542 28.3373 23.5965 27.9652 22.9427C27.6519 22.3273 27.4952 21.6542 27.5148 20.9811C27.5148 20.1542 27.7498 19.3658 28.1806 18.6542C28.6702 17.885 29.3948 17.2696 30.2369 16.885C31.1573 16.4235 32.3127 16.2119 33.7031 16.2119C34.5061 16.2119 35.3286 16.2696 36.1315 16.385C36.719 16.4619 37.2869 16.6158 37.8156 16.8273C37.894 16.8465 37.9723 16.9235 38.0115 17.0004C38.0311 17.0773 38.0506 17.1542 38.0506 17.2311V20.3658C38.0506 20.4427 38.0115 20.5196 37.9527 20.5581C37.7765 20.5965 37.6786 20.5965 37.6002 20.5581Z" fill="#31A8FF"/>
</svg>
