<svg width="50" height="46" viewBox="0 0 50 46" fill="none" xmlns="http://www.w3.org/2000/svg">
<path d="M49.2699 22.551C49.2699 19.2036 45.1825 16.0312 38.9158 14.064C40.3619 7.51328 39.7192 2.30156 36.8871 0.632989C36.2344 0.241595 35.4711 0.0561981 34.6376 0.0561981V2.35306C35.0995 2.35306 35.4711 2.44576 35.7824 2.62086C37.1482 3.42425 37.7408 6.4833 37.2788 10.4178C37.1683 11.386 36.9876 12.4057 36.7666 13.446C34.7982 12.9516 32.6491 12.5705 30.3895 12.3233C29.0337 10.4178 27.6277 8.68746 26.2117 7.17339C29.4856 4.05254 32.5587 2.34276 34.6476 2.34276V0.0458984C31.8858 0.0458984 28.2704 2.06467 24.6149 5.56661C20.9593 2.08527 17.3439 0.087098 14.5821 0.087098V2.38396C16.661 2.38396 19.7441 4.08344 23.0181 7.18369C21.6121 8.69776 20.2061 10.4178 18.8704 12.3233C16.6007 12.5705 14.4516 12.9516 12.4832 13.4563C12.2522 12.4263 12.0815 11.4272 11.961 10.4693C11.4889 6.5348 12.0714 3.47575 13.4272 2.66206C13.7285 2.47666 14.1202 2.39426 14.5821 2.39426V0.0973976C13.7385 0.0973976 12.9753 0.282795 12.3124 0.674188C9.49043 2.34276 8.85773 7.54418 10.3139 14.0743C4.06733 16.0518 0 19.2139 0 22.551C0 25.8985 4.08741 29.0708 10.3541 31.0381C8.90795 37.5888 9.55069 42.8005 12.3828 44.4691C13.0355 44.8605 13.7988 45.0459 14.6424 45.0459C17.4041 45.0459 21.0195 43.0271 24.6751 39.5252C28.3307 43.0065 31.9461 45.0047 34.7079 45.0047C35.5514 45.0047 36.3147 44.8193 36.9775 44.4279C39.7995 42.7593 40.4322 37.5579 38.976 31.0278C45.2026 29.0605 49.2699 25.8882 49.2699 22.551V22.551ZM36.1942 15.6811C35.8226 17.0097 35.3606 18.3796 34.8384 19.7495C34.4267 18.9255 33.9948 18.1015 33.5228 17.2775C33.0608 16.4535 32.5687 15.6502 32.0766 14.8674C33.5027 15.0837 34.8786 15.3515 36.1942 15.6811ZM31.5946 26.6504C30.8113 28.0409 30.0078 29.3592 29.1743 30.5849C27.6779 30.7188 26.1614 30.7909 24.6349 30.7909C23.1185 30.7909 21.602 30.7188 20.1157 30.5952C19.2821 29.3695 18.4687 28.0615 17.6853 26.6813C16.9221 25.332 16.2291 23.9621 15.5964 22.5819C16.2191 21.2018 16.9221 19.8216 17.6753 18.4723C18.4586 17.0818 19.2621 15.7635 20.0956 14.5378C21.592 14.4039 23.1084 14.3318 24.6349 14.3318C26.1514 14.3318 27.6679 14.4039 29.1542 14.5275C29.9877 15.7532 30.8012 17.0612 31.5845 18.4414C32.3478 19.7907 33.0408 21.1606 33.6734 22.5407C33.0408 23.9209 32.3478 25.3011 31.5946 26.6504ZM34.8384 25.3114C35.3807 26.6916 35.8427 28.0718 36.2243 29.4107C34.9087 29.7403 33.5228 30.0184 32.0867 30.2347C32.5788 29.4416 33.0709 28.628 33.5329 27.7937C33.9948 26.9697 34.4267 26.1354 34.8384 25.3114ZM24.655 36.3013C23.7211 35.3125 22.7871 34.2105 21.8631 33.0054C22.767 33.0466 23.6909 33.0775 24.6249 33.0775C25.5689 33.0775 26.5029 33.0569 27.4168 33.0054C26.5129 34.2105 25.579 35.3125 24.655 36.3013ZM17.1832 30.2347C15.7571 30.0184 14.3813 29.7506 13.0657 29.421C13.4372 28.0924 13.8992 26.7225 14.4214 25.3526C14.8332 26.1766 15.265 27.0006 15.737 27.8246C16.2091 28.6486 16.6911 29.4519 17.1832 30.2347ZM24.6048 8.80076C25.5388 9.78955 26.4728 10.8916 27.3967 12.0967C26.4929 12.0555 25.5689 12.0246 24.6349 12.0246C23.6909 12.0246 22.7569 12.0452 21.8431 12.0967C22.7469 10.8916 23.6809 9.78955 24.6048 8.80076ZM17.1732 14.8674C16.6811 15.6605 16.189 16.4741 15.727 17.3084C15.265 18.1324 14.8332 18.9564 14.4214 19.7804C13.8791 18.4002 13.4172 17.02 13.0355 15.6811C14.3511 15.3618 15.737 15.0837 17.1732 14.8674V14.8674ZM8.08444 27.7628C4.5293 26.2075 2.2295 24.1681 2.2295 22.551C2.2295 20.934 4.5293 18.8843 8.08444 17.3393C8.94812 16.9582 9.89214 16.6183 10.8663 16.299C11.4387 18.3178 12.1919 20.419 13.1259 22.5716C12.202 24.714 11.4588 26.8049 10.8964 28.8133C9.90218 28.4941 8.95816 28.1439 8.08444 27.7628ZM13.4875 42.4812C12.1216 41.6778 11.5291 38.6188 11.9911 34.6843C12.1016 33.7161 12.2823 32.6964 12.5033 31.6561C14.4717 32.1505 16.6208 32.5316 18.8804 32.7788C20.2362 34.6843 21.6422 36.4146 23.0582 37.9287C19.7843 41.0496 16.7112 42.7593 14.6223 42.7593C14.1704 42.749 13.7887 42.6563 13.4875 42.4812V42.4812ZM37.3089 34.6328C37.7809 38.5673 37.1985 41.6263 35.8427 42.44C35.5414 42.6254 35.1497 42.7078 34.6878 42.7078C32.6089 42.7078 29.5258 41.0084 26.2518 37.9081C27.6578 36.394 29.0638 34.674 30.3995 32.7685C32.6692 32.5213 34.8183 32.1402 36.7867 31.6355C37.0177 32.6758 37.1985 33.6749 37.3089 34.6328V34.6328ZM41.1754 27.7628C40.3117 28.1439 39.3677 28.4838 38.3936 28.8031C37.8211 26.7843 37.0679 24.6831 36.1339 22.5304C37.0579 20.3881 37.801 18.2972 38.3634 16.2887C39.3577 16.608 40.3017 16.9582 41.1854 17.3393C44.7406 18.8946 47.0404 20.934 47.0404 22.551C47.0303 24.1681 44.7306 26.2178 41.1754 27.7628V27.7628Z" fill="#61DAFB"/>
<path d="M24.6247 27.2583C27.1595 27.2583 29.2143 25.1509 29.2143 22.5513C29.2143 19.9516 27.1595 17.8442 24.6247 17.8442C22.09 17.8442 20.0352 19.9516 20.0352 22.5513C20.0352 25.1509 22.09 27.2583 24.6247 27.2583Z" fill="#61DAFB"/>
</svg>
