<svg width="60" height="44" viewBox="0 0 60 44" fill="none" xmlns="http://www.w3.org/2000/svg">
<path d="M51.6647 25.294C49.5716 25.3045 47.7523 25.7975 46.2291 26.5263C45.6699 25.4438 45.111 24.4795 45.0126 23.7721C44.9028 22.947 44.7714 22.4433 44.9028 21.4574C45.0344 20.4714 45.6262 19.0675 45.6152 18.9604C45.6044 18.8533 45.4836 18.3495 44.2781 18.3389C43.0727 18.3281 42.0315 18.5639 41.911 18.8746C41.7904 19.1854 41.5603 19.8927 41.4068 20.6213C41.1986 21.6931 38.996 25.5187 37.7358 27.5228C37.3301 26.7407 36.9795 26.0547 36.9026 25.5082C36.7931 24.6831 36.6615 24.1793 36.7931 23.1934C36.9247 22.2075 37.5165 20.8037 37.5054 20.6964C37.4944 20.5893 37.3738 20.0856 36.1684 20.075C34.9627 20.0642 33.9216 20.3 33.8012 20.6107C33.6807 20.9216 33.549 21.6502 33.2971 22.3576C33.0449 23.0649 30.1189 29.4521 29.3518 31.1022C29.0417 31.7701 28.7165 32.4311 28.3764 33.0849C28.3764 33.0849 28.3654 33.117 28.3325 33.1706C28.2256 33.3756 28.1161 33.5792 28.0039 33.7814V33.792C27.8394 34.0816 27.664 34.3493 27.5764 34.3493C27.5106 34.3493 27.39 33.5778 27.5982 32.5275C28.0366 30.3093 29.0777 26.8586 29.0669 26.7407C29.0669 26.6763 29.2641 26.0763 28.3875 25.7653C27.5324 25.4546 27.2257 25.9689 27.1489 25.9689C27.0723 25.9689 27.0173 26.1512 27.0173 26.1512C27.0173 26.1512 27.971 22.2718 25.1982 22.2718C23.4668 22.2718 21.0775 24.1258 19.8939 25.7975C18.5484 26.5135 17.2041 27.2315 15.8609 27.9516C15.2146 28.3053 14.546 28.659 13.9213 28.9911C13.8773 28.9483 13.8336 28.8946 13.7896 28.8518C10.4361 25.3475 4.23333 22.8719 4.49633 18.1675C4.59504 16.4528 5.19764 11.9518 16.409 6.48642C25.6365 2.03894 32.9794 3.27124 34.2506 6.00402C36.0697 9.90499 30.3163 17.1494 20.7816 18.1994C17.1432 18.5961 15.2362 17.2243 14.7542 16.71C14.2501 16.174 14.1732 16.1418 13.9868 16.2492C13.6801 16.41 13.8773 16.8922 13.9868 17.1707C14.2719 17.8993 15.4444 19.1854 17.428 19.8178C19.1816 20.3749 23.4447 20.6858 28.6065 18.7354C34.382 16.5491 38.8973 10.4729 37.5712 5.38259C36.245 0.217157 27.4777 -1.48673 19.1816 1.3959C14.2501 3.11082 8.90185 5.81121 5.05521 9.3263C0.485173 13.5056 -0.238231 17.1386 0.0576642 18.6604C1.12091 24.0614 8.73757 27.5765 11.7842 30.1806C11.6307 30.2663 11.4881 30.3415 11.3677 30.4059C9.8443 31.1452 4.03591 34.1135 2.58934 37.2536C0.945585 40.8114 2.85257 43.3622 4.11277 43.7048C8.02521 44.7659 12.0472 42.8584 14.2061 39.7076C16.365 36.557 16.102 32.4632 15.1048 30.5879C15.0938 30.5665 15.083 30.5449 15.0609 30.5235C15.4555 30.2985 15.8609 30.0627 16.2555 29.8377C16.9808 29.4185 17.7152 29.0147 18.4584 28.6266C18.0856 29.6233 17.8116 30.8129 17.6802 32.5275C17.5157 34.5424 18.3594 37.157 19.4664 38.1857C19.9597 38.6362 20.5405 38.6467 20.9132 38.6467C22.2063 38.6467 22.7873 37.5965 23.4339 36.3534C24.2228 34.8317 24.9352 33.0635 24.9352 33.0635C24.9352 33.0635 24.0475 37.8431 26.4586 37.8431C27.3352 37.8431 28.2229 36.7284 28.6175 36.1605V36.1711C28.6175 36.1711 28.6394 36.1389 28.6833 36.064C28.771 35.9247 28.8258 35.8388 28.8258 35.8388V35.8176C29.1764 35.2174 29.9656 33.8564 31.1382 31.5952C32.6505 28.6804 34.1082 25.0368 34.1082 25.0368C34.1082 25.0368 34.2398 25.9262 34.6889 27.4051C34.9521 28.2731 35.4997 29.2269 35.9383 30.1485C35.5876 30.6308 35.3684 30.8986 35.3684 30.8986L35.3794 30.9094C35.0943 31.2736 34.7876 31.6701 34.4478 32.0562C33.2532 33.4491 31.8287 35.0461 31.6313 35.5067C31.4009 36.0532 31.4559 36.4499 31.8945 36.7714C32.2122 37.0072 32.7819 37.0391 33.3629 37.0072C34.437 36.932 35.193 36.6749 35.5656 36.5142C36.1465 36.3106 36.826 35.9997 37.4615 35.5389C38.6343 34.6922 39.3464 33.4813 39.2808 31.8847C39.2479 31.0059 38.952 30.1271 38.5903 29.3018C38.7001 29.152 38.7985 29.0019 38.9083 28.8518C40.7603 26.2047 42.196 23.3005 42.196 23.3005C42.196 23.3005 42.3277 24.1899 42.7768 25.669C42.9961 26.4192 43.4454 27.2336 43.8398 28.0265C42.0973 29.4091 41.0233 31.0165 40.6397 32.0668C39.9495 34.0172 40.4862 34.8958 41.5055 35.0995C41.9657 35.196 42.6233 34.9816 43.1056 34.7779C43.7192 34.5851 44.4426 34.253 45.1331 33.7598C46.3059 32.9134 47.4345 31.7344 47.3687 30.1379C47.3358 29.4091 47.1386 28.6909 46.8646 27.9944C48.344 27.3945 50.251 27.0622 52.6838 27.3407C57.9006 27.9408 58.9307 31.1236 58.7333 32.4634C58.5361 33.8028 57.4402 34.5316 57.0787 34.7566C56.7168 34.9818 56.5964 35.0567 56.6293 35.2174C56.6731 35.4532 56.8484 35.4426 57.1553 35.3996C57.5828 35.3247 59.8952 34.3172 59.9937 31.8523C60.1582 28.7017 57.0895 25.2618 51.6647 25.294ZM11.4225 38.561C9.69083 40.4042 7.27995 41.1008 6.23879 40.5115C5.12102 39.879 5.55934 37.157 7.68537 35.2068C8.97847 34.0172 10.6443 32.9132 11.7513 32.2382C12.0032 32.0881 12.376 31.8739 12.8253 31.606C12.902 31.563 12.9459 31.5416 12.9459 31.5416L13.2089 31.3807C13.9868 34.1671 13.2418 36.6213 11.4225 38.561ZM24.0256 30.1806C23.4228 31.6168 22.1626 35.2925 21.3955 35.0889C20.7379 34.9174 20.3322 32.1311 21.2639 29.3769C21.7351 27.9944 22.7323 26.344 23.3133 25.7012C24.2557 24.6723 25.2969 24.3292 25.5488 24.7475C25.8668 25.294 24.3982 29.2804 24.0256 30.1806ZM34.4259 35.0459C34.1737 35.1746 33.9328 35.2603 33.8231 35.196C33.7465 35.153 33.9328 34.9816 33.9328 34.9816C33.9328 34.9816 35.237 33.61 35.7519 32.9883C36.0481 32.6241 36.3985 32.1955 36.7712 31.7131V31.8523C36.7712 33.4921 35.1491 34.5959 34.4257 35.0459H34.4259ZM42.448 33.2563C42.2616 33.1276 42.2945 32.699 42.9192 31.3594C43.1604 30.8342 43.73 29.9556 44.7056 29.109C44.8152 29.4519 44.892 29.7842 44.881 30.0949C44.8699 32.1633 43.3578 32.9348 42.448 33.2563Z" fill="#FF3939"/>
</svg>
