<svg width="110" height="112" viewBox="0 0 110 112" fill="none" xmlns="http://www.w3.org/2000/svg">
<path d="M54.6014 19.8825C50.4803 22.2622 47.1573 25.8105 45.0527 30.0787C42.9481 34.347 42.1564 39.1434 42.7778 43.8616C43.3991 48.5797 45.4056 53.0077 48.5435 56.5855C51.6814 60.1633 55.8097 62.7303 60.4065 63.9618C65.0032 65.1934 69.862 65.0342 74.3683 63.5045C78.8746 61.9747 82.8261 59.143 85.7231 55.3675C88.6201 51.592 90.3324 47.0422 90.6437 42.2935C90.9549 37.5448 89.851 32.8104 87.4716 28.6891C84.2751 23.1683 79.0194 19.1407 72.8573 17.4897C66.6952 15.8388 60.1299 16.6993 54.6014 19.8825ZM84.264 30.54C85.841 33.2546 86.7688 36.2972 86.975 39.4298C87.1813 42.5625 86.6602 45.7004 85.4527 48.5983C84.2451 51.4963 82.3838 54.0757 80.0141 56.135C77.6444 58.1943 74.8306 59.6777 71.7926 60.4693C68.7546 61.2609 65.5747 61.3391 62.5014 60.698C59.4281 60.0569 56.5447 58.7138 54.0766 56.7736C51.6084 54.8334 49.6224 52.3487 48.2737 49.5137C46.925 46.6787 46.2502 43.5702 46.302 40.4312L54.1424 47.7608C53.758 48.6286 53.6025 49.5805 53.6908 50.5255C53.779 51.4706 54.108 52.3772 54.6463 53.1589C55.1847 53.9406 55.9144 54.5713 56.7659 54.9907C57.6173 55.4101 58.5621 55.6042 59.51 55.5545C60.4578 55.5049 61.3771 55.2131 62.1801 54.707C62.983 54.2009 63.6429 53.4975 64.0966 52.6638C64.5503 51.8301 64.7828 50.894 64.7717 49.9449C64.7607 48.9959 64.5066 48.0654 64.0336 47.2425L72.2794 36.7072C72.844 36.9061 73.4373 37.0111 74.0359 37.0182C75.1341 37.0182 76.2077 36.6925 77.1208 36.0824C78.0339 35.4722 78.7456 34.605 79.1659 33.5904C79.5862 32.5758 79.6961 31.4593 79.4819 30.3822C79.2676 29.3051 78.7388 28.3157 77.9622 27.5391C77.1857 26.7626 76.1963 26.2337 75.1192 26.0195C74.042 25.8052 72.9256 25.9152 71.911 26.3354C70.8963 26.7557 70.0291 27.4674 69.419 28.3805C68.8088 29.2937 68.4832 30.3672 68.4832 31.4655C68.4865 32.5162 68.791 33.5439 69.3605 34.4269L61.2369 44.8049C60.5058 44.5088 59.7181 44.3783 58.9305 44.4228C58.143 44.4672 57.375 44.6856 56.6819 45.0622L46.8721 35.8947C47.8305 31.9442 49.9506 28.3715 52.9589 25.6375C55.9671 22.9034 59.7255 21.1334 63.7493 20.5557C67.7731 19.978 71.8777 20.6192 75.5337 22.3965C79.1896 24.1739 82.2291 27.0058 84.2602 30.5271L84.264 30.54ZM61.0796 49.9744C61.0796 50.3405 60.971 50.6984 60.7677 51.0028C60.5643 51.3071 60.2752 51.5444 59.937 51.6845C59.5988 51.8245 59.2266 51.8612 58.8676 51.7898C58.5086 51.7184 58.1788 51.5421 57.9199 51.2832C57.6611 51.0244 57.4848 50.6946 57.4134 50.3355C57.3419 49.9765 57.3786 49.6044 57.5187 49.2661C57.6588 48.9279 57.896 48.6389 58.2004 48.4355C58.5048 48.2321 58.8626 48.1236 59.2287 48.1236C59.7196 48.1236 60.1904 48.3186 60.5375 48.6657C60.8846 49.0128 61.0796 49.4836 61.0796 49.9744ZM72.185 31.4655C72.185 31.0994 72.2935 30.7415 72.4969 30.4372C72.7003 30.1328 72.9894 29.8955 73.3276 29.7555C73.6658 29.6154 74.0379 29.5787 74.397 29.6501C74.756 29.7215 75.0858 29.8978 75.3447 30.1567C75.6035 30.4155 75.7798 30.7453 75.8512 31.1044C75.9226 31.4634 75.886 31.8356 75.7459 32.1738C75.6058 32.512 75.3686 32.801 75.0642 33.0044C74.7598 33.2078 74.402 33.3164 74.0359 33.3164C73.545 33.3164 73.0742 33.1214 72.7271 32.7742C72.38 32.4271 72.185 31.9563 72.185 31.4655Z" fill="white"/>
<path d="M108.729 95.1362L95.9321 72.9587C95.6866 72.5336 95.2824 72.2234 94.8082 72.0964C94.3341 71.9694 93.8289 72.0359 93.4038 72.2813L91.8009 73.2067L86.9127 64.7426C90.5621 61.6721 93.4644 57.8109 95.3994 53.4517C97.3344 49.0926 98.2514 44.35 98.0807 39.5838C97.9099 34.8175 96.6561 30.1527 94.4141 25.9432C92.1722 21.7337 89.0011 18.09 85.1413 15.2884V1.8509C85.1413 1.36001 84.9463 0.889226 84.5992 0.542116C84.2521 0.195005 83.7813 0 83.2905 0H20.3599C19.869 0.00010483 19.3983 0.195178 19.0513 0.542313L0.542313 19.0513C0.195178 19.3983 0.00010483 19.869 0 20.3599V109.203C0 109.694 0.195005 110.165 0.542116 110.512C0.889226 110.859 1.36001 111.054 1.8509 111.054H83.2905C83.7813 111.054 84.2521 110.859 84.5992 110.512C84.9463 110.165 85.1413 109.694 85.1413 109.203V91.2882L92.7004 104.391C93.3036 105.452 94.1108 106.383 95.0754 107.131C96.0399 107.878 97.1429 108.428 98.3207 108.748C99.4986 109.068 100.728 109.151 101.938 108.994C103.149 108.837 104.316 108.441 105.373 107.831C106.43 107.221 107.356 106.408 108.097 105.438C108.838 104.469 109.381 103.362 109.693 102.182C110.005 101.002 110.08 99.7721 109.915 98.5629C109.749 97.3537 109.346 96.1891 108.729 95.1362ZM88.5951 75.0576L85.3894 76.9085L80.7325 68.8423C81.2878 68.5666 81.8282 68.2871 82.365 67.9706C82.9018 67.6541 83.4052 67.3024 83.9216 66.9637L88.5951 75.0576ZM90.6755 26.838C93.9063 32.417 95.1016 38.944 94.0577 45.3059C93.0137 51.6677 89.7951 57.4704 84.9508 61.7243C80.1065 65.9782 73.9365 68.4199 67.4931 68.6329C61.0497 68.8458 54.7319 66.817 49.6172 62.8923C44.5026 58.9675 40.9078 53.3901 39.446 47.111C37.9843 40.832 38.746 34.2403 41.6013 28.4602C44.4566 22.68 49.2286 18.0693 55.1036 15.4145C60.9785 12.7597 67.5925 12.2252 73.8176 13.9021C80.9284 15.8111 86.9913 20.4635 90.6755 26.838ZM18.509 6.31897V18.509H6.31897L18.509 6.31897ZM81.4396 107.352H3.7018V22.2108H20.3599C20.8508 22.2108 21.3216 22.0158 21.6687 21.6687C22.0158 21.3216 22.2108 20.8508 22.2108 20.3599V3.7018H81.4396V12.9804C79.3264 11.8456 77.0909 10.9552 74.7763 10.3262C67.5926 8.39149 59.9551 9.07285 53.2272 12.2486C46.4994 15.4243 41.1192 20.8878 38.0471 27.6635L36.5534 26.2717C36.9547 25.362 37.1043 24.3614 36.9868 23.3741C36.8693 22.3869 36.4888 21.4494 35.8852 20.6594C35.2816 19.8694 34.477 19.2559 33.5553 18.8831C32.6337 18.5103 31.6289 18.3917 30.6458 18.5399C29.6627 18.688 28.7374 19.0973 27.9665 19.7252C27.1956 20.353 26.6075 21.1763 26.2634 22.1091C25.9194 23.0418 25.8321 24.0499 26.0106 25.0279C26.1892 26.0059 26.6271 26.9181 27.2785 27.6691L17.6354 44.5123C17.3128 44.4538 16.9859 44.4235 16.6581 44.4216C15.5599 44.4216 14.4863 44.7472 13.5732 45.3574C12.66 45.9675 11.9483 46.8347 11.5281 47.8493C11.1078 48.864 10.9978 49.9804 11.2121 51.0575C11.4263 52.1347 11.9552 53.1241 12.7317 53.9006C13.5083 54.6772 14.4977 55.206 15.5748 55.4203C16.6519 55.6345 17.7684 55.5246 18.783 55.1043C19.7976 54.684 20.6649 53.9723 21.275 53.0592C21.8851 52.146 22.2108 51.0725 22.2108 49.9743C22.2056 48.6464 21.7205 47.3651 20.8448 46.3669L30.488 29.5237C30.8105 29.5822 31.1375 29.6125 31.4653 29.6144C32.3548 29.6083 33.2295 29.3859 34.014 28.9666L36.6311 31.4023C35.3643 35.4436 34.9285 39.6994 35.35 43.9135C35.7715 48.1277 37.0416 52.2129 39.0837 55.9231C41.1259 59.6334 43.8979 62.892 47.2328 65.5025C50.5676 68.1131 54.3964 70.0217 58.4884 71.1134C61.1606 71.8314 63.9154 72.196 66.6823 72.198C70.3065 72.1939 73.902 71.5562 77.3065 70.3138L82.1799 78.7613L80.5789 79.6868C80.1538 79.9322 79.8436 80.3365 79.7165 80.8106C79.5895 81.2848 79.656 81.79 79.9015 82.2151L81.4396 84.8748V107.352ZM29.6144 24.0617C29.6144 23.6956 29.7229 23.3378 29.9263 23.0334C30.1297 22.729 30.4188 22.4918 30.757 22.3517C31.0952 22.2116 31.4673 22.1749 31.8264 22.2464C32.1854 22.3178 32.5152 22.494 32.7741 22.7529C33.0329 23.0118 33.2092 23.3416 33.2806 23.7006C33.352 24.0596 33.3154 24.4318 33.1753 24.77C33.0352 25.1082 32.798 25.3973 32.4936 25.6007C32.1892 25.804 31.8314 25.9126 31.4653 25.9126C30.9744 25.9126 30.5036 25.7176 30.1565 25.3705C29.8094 25.0234 29.6144 24.5526 29.6144 24.0617ZM18.509 49.9743C18.509 50.3403 18.4004 50.6982 18.1971 51.0026C17.9937 51.307 17.7046 51.5442 17.3664 51.6843C17.0282 51.8244 16.656 51.861 16.297 51.7896C15.938 51.7182 15.6082 51.5419 15.3493 51.2831C15.0905 51.0242 14.9142 50.6944 14.8428 50.3354C14.7713 49.9763 14.808 49.6042 14.9481 49.266C15.0882 48.9278 15.3254 48.6387 15.6298 48.4353C15.9342 48.2319 16.292 48.1234 16.6581 48.1234C17.149 48.1234 17.6198 48.3184 17.9669 48.6655C18.314 49.0126 18.509 49.4834 18.509 49.9743ZM106.079 101.19C105.796 102.253 105.204 103.209 104.378 103.934C103.551 104.66 102.528 105.125 101.437 105.268C100.347 105.412 99.2382 105.228 98.2521 104.741C97.2661 104.253 96.447 103.484 95.8988 102.531L84.0308 81.9671L93.6555 76.4144L105.523 96.9871C105.888 97.6166 106.125 98.312 106.22 99.0334C106.316 99.7547 106.268 100.488 106.079 101.19Z" fill="white"/>
<path d="M72.1851 99.9487H70.3342V83.2906C70.3342 82.7997 70.1392 82.329 69.7921 81.9818C69.445 81.6347 68.9742 81.4397 68.4833 81.4397H61.0797C60.5888 81.4397 60.1181 81.6347 59.771 81.9818C59.4238 82.329 59.2288 82.7997 59.2288 83.2906V99.9487H55.527V75.887C55.527 75.3961 55.332 74.9254 54.9849 74.5782C54.6378 74.2311 54.167 74.0361 53.6761 74.0361H46.2725C45.7817 74.0361 45.3109 74.2311 44.9638 74.5782C44.6167 74.9254 44.4216 75.3961 44.4216 75.887V99.9487H40.7199V83.2906C40.7199 82.7997 40.5248 82.329 40.1777 81.9818C39.8306 81.6347 39.3598 81.4397 38.869 81.4397H31.4654C30.9745 81.4397 30.5037 81.6347 30.1566 81.9818C29.8095 82.329 29.6145 82.7997 29.6145 83.2906V99.9487H25.9127V90.6942C25.9127 90.2033 25.7177 89.7325 25.3705 89.3854C25.0234 89.0383 24.5526 88.8433 24.0618 88.8433H16.6582C16.1673 88.8433 15.6965 89.0383 15.3494 89.3854C15.0023 89.7325 14.8073 90.2033 14.8073 90.6942V99.9487H12.9564C12.4655 99.9487 11.9947 100.144 11.6476 100.491C11.3005 100.838 11.1055 101.309 11.1055 101.8C11.1055 102.291 11.3005 102.761 11.6476 103.108C11.9947 103.456 12.4655 103.651 12.9564 103.651H72.1851C72.676 103.651 73.1468 103.456 73.4939 103.108C73.841 102.761 74.036 102.291 74.036 101.8C74.036 101.309 73.841 100.838 73.4939 100.491C73.1468 100.144 72.676 99.9487 72.1851 99.9487ZM18.5091 99.9487V92.5451H22.2109V99.9487H18.5091ZM33.3163 99.9487V85.1415H37.0181V99.9487H33.3163ZM48.1234 99.9487V77.7379H51.8252V99.9487H48.1234ZM62.9306 99.9487V85.1415H66.6324V99.9487H62.9306Z" fill="white"/>
<path d="M11.1053 66.6325H33.3161C33.807 66.6325 34.2778 66.4375 34.6249 66.0903C34.972 65.7432 35.167 65.2725 35.167 64.7816C35.167 64.2907 34.972 63.8199 34.6249 63.4728C34.2778 63.1257 33.807 62.9307 33.3161 62.9307H11.1053C10.6144 62.9307 10.1436 63.1257 9.79651 63.4728C9.4494 63.8199 9.25439 64.2907 9.25439 64.7816C9.25439 65.2725 9.4494 65.7432 9.79651 66.0903C10.1436 66.4375 10.6144 66.6325 11.1053 66.6325Z" fill="#30D2A3"/>
<path d="M33.3161 74.0358C33.807 74.0358 34.2778 73.8408 34.6249 73.4937C34.972 73.1466 35.167 72.6758 35.167 72.1849C35.167 71.694 34.972 71.2232 34.6249 70.8761C34.2778 70.529 33.807 70.334 33.3161 70.334H11.1053C10.6144 70.334 10.1436 70.529 9.79651 70.8761C9.4494 71.2232 9.25439 71.694 9.25439 72.1849C9.25439 72.6758 9.4494 73.1466 9.79651 73.4937C10.1436 73.8408 10.6144 74.0358 11.1053 74.0358H33.3161Z" fill="#30D2A3"/>
</svg>
