<svg width="110" height="103" viewBox="0 0 110 103" fill="none" xmlns="http://www.w3.org/2000/svg">
<path d="M7.33333 88H11V84.3333H7.33333C5.30796 84.3333 3.66667 82.692 3.66667 80.6667V7.33333C3.66667 5.30796 5.30796 3.66667 7.33333 3.66667H88C90.0254 3.66667 91.6667 5.30796 91.6667 7.33333V11H95.3333V7.33333C95.3333 3.2835 92.0498 0 88 0H7.33333C3.2835 0 0 3.2835 0 7.33333V80.6667C0 84.7165 3.2835 88 7.33333 88Z" fill="white"/>
<path d="M7.3335 7.33301H11.0002V10.9997H7.3335V7.33301Z" fill="#30D2A3"/>
<path d="M14.6665 7.33301H18.3332V10.9997H14.6665V7.33301Z" fill="#30D2A3"/>
<path d="M22 7.33301H25.6667V10.9997H22V7.33301Z" fill="#30D2A3"/>
<path d="M14.6665 95.3337C14.6665 99.3835 17.95 102.667 21.9998 102.667H102.667C106.716 102.667 110 99.3835 110 95.3337V22.0003C110 17.9505 106.716 14.667 102.667 14.667H21.9998C17.95 14.667 14.6665 17.9505 14.6665 22.0003V95.3337ZM18.3332 22.0003C18.3332 19.975 19.9745 18.3337 21.9998 18.3337H102.667C104.692 18.3337 106.333 19.975 106.333 22.0003V95.3337C106.333 97.359 104.692 99.0003 102.667 99.0003H21.9998C19.9745 99.0003 18.3332 97.359 18.3332 95.3337V22.0003Z" fill="white"/>
<path d="M22 22H25.6667V25.6667H22V22Z" fill="white"/>
<path d="M29.3335 22H33.0002V25.6667H29.3335V22Z" fill="white"/>
<path d="M36.6665 22H40.3332V25.6667H36.6665V22Z" fill="white"/>
<path d="M22 29.333H102.667V32.9997H22V29.333Z" fill="white"/>
<path d="M22 38.5H36.6667V42.1667H22V38.5Z" fill="white"/>
<path d="M22 45.833H33V49.4997H22V45.833Z" fill="white"/>
<path d="M62.3333 53.167C55.2452 53.167 49.5 58.9122 49.5 66.0003C49.5 73.0884 55.2452 78.8337 62.3333 78.8337C69.4215 78.8337 75.1667 73.0884 75.1667 66.0003C75.1584 58.9163 69.4173 53.1752 62.3333 53.167ZM62.3333 75.167C57.271 75.167 53.1667 71.0626 53.1667 66.0003C53.1667 60.938 57.271 56.8337 62.3333 56.8337C67.3956 56.8337 71.5 60.938 71.5 66.0003C71.4936 71.0603 67.3933 75.1606 62.3333 75.167Z" fill="#30D2A3"/>
<path d="M91.6667 60.5003C91.6667 59.4874 90.8463 58.667 89.8333 58.667H84.9878C84.5996 57.4625 84.1156 56.2905 83.5377 55.1653L86.9642 51.7411C87.6792 51.0247 87.6792 49.8647 86.9642 49.1483L79.1853 41.3695C78.469 40.6545 77.3089 40.6545 76.5925 41.3695L73.1683 44.7942C72.0413 44.2185 70.8703 43.7345 69.6667 43.3458V38.5003C69.6667 37.4874 68.8463 36.667 67.8333 36.667H56.8333C55.8204 36.667 55 37.4874 55 38.5003V43.3458C53.7964 43.7345 52.6254 44.2185 51.4983 44.7942L48.0741 41.3695C47.3578 40.6545 46.1977 40.6545 45.4813 41.3695L37.7025 49.1483C36.9875 49.8647 36.9875 51.0247 37.7025 51.7411L41.1272 55.1653C40.9741 55.4655 40.8265 55.7667 40.6872 56.071C40.3003 56.9162 39.9639 57.7824 39.6788 58.667H34.8333C33.8204 58.667 33 59.4874 33 60.5003V71.5003C33 72.5132 33.8204 73.3337 34.8333 73.3337H39.6788C40.067 74.5382 40.551 75.7101 41.129 76.8353L37.7025 80.2595C36.9875 80.9759 36.9875 82.136 37.7025 82.8523L45.4813 90.6312C46.1977 91.3462 47.3578 91.3462 48.0741 90.6312L51.4983 87.2065C52.6254 87.7822 53.7964 88.2662 55 88.6548V93.5003C55 94.5132 55.8204 95.3337 56.8333 95.3337H67.8333C68.8463 95.3337 69.6667 94.5132 69.6667 93.5003V88.6548C70.8703 88.2662 72.0413 87.7822 73.1683 87.2065L76.5925 90.6312C77.3089 91.3462 78.469 91.3462 79.1853 90.6312L86.9642 82.8523C87.6792 82.136 87.6792 80.9759 86.9642 80.2595L83.5377 76.8353C84.1156 75.7101 84.5996 74.5382 84.9878 73.3337H89.8333C90.8463 73.3337 91.6667 72.5132 91.6667 71.5003V60.5003ZM88 69.667H83.611C82.775 69.667 82.0453 70.233 81.8363 71.042C81.3679 72.8616 80.646 74.6078 79.6913 76.2267C79.2665 76.9462 79.3833 77.8629 79.9737 78.4542L83.0734 81.5557L77.8887 86.7427L74.7872 83.6407C74.1955 83.0494 73.2788 82.933 72.5588 83.3583C70.9399 84.313 69.1946 85.0354 67.375 85.5033C66.566 85.7123 66 86.442 66 87.278V91.667H58.6667V87.278C58.6667 86.442 58.1006 85.7123 57.2917 85.5033C55.4721 85.0354 53.7268 84.313 52.1079 83.3583C51.3879 82.933 50.4712 83.0494 49.8795 83.6407L46.778 86.7427L41.5933 81.5557L44.693 78.4542C45.2833 77.8629 45.4002 76.9462 44.9753 76.2267C44.0206 74.6078 43.2988 72.8616 42.8303 71.042C42.6213 70.233 41.8917 69.667 41.0557 69.667H36.6667V62.3337H41.0557C41.8917 62.3337 42.6213 61.7676 42.8303 60.9587C43.1264 59.8046 43.5256 58.6807 44.0225 57.5986C44.3089 56.9712 44.627 56.3593 44.9753 55.7653C45.3988 55.0452 45.2829 54.13 44.693 53.5392L41.5933 50.4376L46.778 45.2507L49.8795 48.3536C50.4712 48.9448 51.3879 49.0603 52.1079 48.6345C53.7268 47.6807 55.4721 46.9575 57.2917 46.4895C58.1006 46.281 58.6667 45.5504 58.6667 44.7158V40.3337H66V44.7227C66 45.5587 66.566 46.2883 67.375 46.4973C69.1946 46.9653 70.9399 47.6876 72.5588 48.6423C73.2788 49.0677 74.1955 48.9512 74.7872 48.36L77.8887 45.258L83.0734 50.445L79.9737 53.5465C79.3833 54.1377 79.2665 55.0544 79.6913 55.774C80.646 57.3928 81.3679 59.1391 81.8363 60.9587C82.0453 61.7676 82.775 62.3337 83.611 62.3337H88V69.667Z" fill="#30D2A3"/>
<path d="M91.6665 91.667H102.667V95.3337H91.6665V91.667Z" fill="#30D2A3"/>
</svg>
