<svg width="14" height="14" viewBox="0 0 14 14" fill="none" xmlns="http://www.w3.org/2000/svg">
<path d="M13.1439 0.148438L13.8509 0.855932L6.35592 8.35087L5.64893 7.64387L13.1439 0.148438Z" fill="white"/>
<path d="M14 4.99996H13V0.999991H9V0H14V4.99996Z" fill="white"/>
<path d="M11.4999 14.0001H1.49999C0.649994 14.0001 0 13.3501 0 12.5001V2.50023C0 1.65024 0.649994 1.00024 1.49999 1.00024H6.99994V2.00024H1.49999C1.19999 2.00024 0.999991 2.20023 0.999991 2.50023V12.5001C0.999991 12.8001 1.19999 13.0001 1.49999 13.0001H11.4999C11.7999 13.0001 11.9999 12.8001 11.9999 12.5001V7.00019H12.9999V12.5001C12.9999 13.3501 12.3499 14.0001 11.4999 14.0001Z" fill="white"/>
</svg>
