<svg width="46" height="46" viewBox="0 0 46 46" fill="none" xmlns="http://www.w3.org/2000/svg">
<path d="M17.7001 0.756223C23.5224 -0.738463 29.9573 0.132519 35.0921 3.30486C41.5591 7.17624 45.7811 14.4994 45.8884 22.0377C46.1248 29.6511 42.1607 37.2002 35.7904 41.3403C28.7003 46.1148 18.8925 46.2978 11.6519 41.7597C4.27186 37.3506 -0.0359839 28.4575 1.07066 19.9191C1.96204 10.8968 8.92345 2.93928 17.7001 0.756403V0.756223Z" fill="#010101"/>
<path d="M16.8095 4.44508C27.8099 0.03598 41.3025 8.17646 42.4411 19.984C44.2137 30.6085 35.4048 41.4051 24.6514 41.717C14.4246 42.7387 4.54145 34.0603 4.25148 23.7801C3.48876 15.4568 8.96749 7.19801 16.8095 4.44508Z" fill="white"/>
<path d="M17.9152 21.4022C22.8461 17.3696 27.6695 13.1971 32.7077 9.28271C30.065 13.3477 27.3472 17.3587 24.7045 21.4235C22.4378 21.4344 20.1712 21.4344 17.9152 21.402V21.4022ZM22.0834 23.6496C24.3607 23.6496 26.6274 23.6496 28.8941 23.6819C23.9311 27.6929 19.1292 31.8975 14.0801 35.8012C16.7228 31.7362 19.4406 27.7146 22.0834 23.6496Z" fill="#010101"/>
</svg>
