<svg width="110" height="110" viewBox="0 0 110 110" fill="none" xmlns="http://www.w3.org/2000/svg">
<path d="M61.1461 69.7015C60.4588 69.1374 59.443 69.237 58.8784 69.9252L54.3271 75.472L52.6075 73.9808C51.9351 73.3979 50.9176 73.4701 50.3345 74.1424C49.7514 74.8146 49.8238 75.8323 50.496 76.4154L53.4667 78.9916C53.7608 79.2468 54.1361 79.3856 54.5224 79.3856C54.5678 79.3856 54.6131 79.3837 54.6586 79.3798C55.0922 79.3431 55.4922 79.1325 55.7681 78.7963L61.3695 71.9694C61.9343 71.2815 61.8344 70.2661 61.1461 69.7015Z" fill="#30D2A3"/>
<path d="M99.4886 93.2941C99.2114 93.2183 98.9358 93.1431 98.662 93.0668C98.3009 92.9663 98.0128 92.4545 97.7958 91.9471C101.946 89.0696 105.037 84.1379 105.037 79.8385V75.9287C105.037 71.1044 103.526 67.0078 100.667 64.0818C98.1015 61.4558 94.646 59.9759 90.9371 59.9147C90.9195 59.9145 90.9015 59.9145 90.8839 59.9147C87.175 59.9762 83.7195 61.456 81.1538 64.0818C78.2951 67.0078 76.7841 71.1044 76.7841 75.9287V79.8385C76.7841 84.1381 79.8759 89.069 84.0271 91.946C83.811 92.4534 83.5224 92.9658 83.1574 93.067C82.8833 93.1437 82.6061 93.2194 82.3273 93.2956C80.9334 93.6768 79.3779 94.1024 77.8998 94.7493L66.6699 83.1357C68.4634 80.8237 69.538 77.9085 69.538 74.7409C69.538 67.7718 64.3549 62.015 57.7088 61.2513V50.0794H72.8956C74.34 50.0794 75.515 48.8947 75.515 47.4387V44.0648C75.515 36.2417 69.43 34.5844 64.9868 33.3742C64.7148 33.3001 64.4443 33.2264 64.1758 33.1516C63.8116 33.0507 63.5235 32.5382 63.3071 32.0286C67.4594 29.1545 70.5521 24.2247 70.5521 19.9237V16.0142C70.5521 11.1894 69.0409 7.0928 66.1813 4.16706C63.6152 1.54145 60.158 0.0613916 56.4463 0.000161133C56.4287 -5.37109e-05 56.4107 -5.37109e-05 56.393 0.000161133C52.684 0.0616064 49.2284 1.54145 46.663 4.16727C43.8043 7.09323 42.2933 11.1899 42.2933 16.0142V19.9241C42.2933 24.2253 45.3862 29.1553 49.5382 32.0293C49.3219 32.5387 49.0334 33.0511 48.6688 33.1523C48.4011 33.2268 48.1304 33.3003 47.8586 33.3746C43.4154 34.5849 37.3304 36.2424 37.3304 44.0653V47.4392C37.3304 48.8952 38.5056 50.0798 39.9498 50.0798H54.4861V61.2794C47.9439 62.1414 42.8719 67.8474 42.8719 74.7411C42.8719 77.9113 43.9482 80.8289 45.7443 83.1417L34.8305 94.5389C32.7233 92.8649 29.9774 92.1112 27.6727 91.4811C27.3939 91.405 27.1165 91.3289 26.8394 91.2516C26.4765 91.1508 26.1886 90.6387 25.9727 90.1312C30.1241 87.254 33.2157 82.3233 33.2157 78.0237V74.114C33.2157 69.2896 31.7047 65.193 28.846 62.267C26.2803 59.641 22.8248 58.1612 19.1159 58.0999C19.0983 58.0997 19.0803 58.0997 19.0627 58.0999C15.3538 58.1614 11.8983 59.6412 9.3326 62.267C6.47389 65.193 4.96289 69.2896 4.96289 74.114V78.0237C4.96289 82.3229 8.05342 87.2542 12.204 90.1321C11.987 90.6397 11.6987 91.1515 11.3369 91.2523C11.0638 91.3283 10.7882 91.4037 10.511 91.4796C6.07514 92.6908 0 94.3503 0 102.171V105.545C0 107.001 1.1752 108.185 2.61937 108.185H15.4028C16.2929 108.185 17.0141 107.464 17.0141 106.574C17.0141 105.684 16.2929 104.963 15.4028 104.963H3.22266V102.171C3.22266 97.8525 5.51783 96.3688 9.40586 95.1532L16.5335 99.4253C17.4524 100.025 18.271 100.324 19.0891 100.324C19.9072 100.324 20.7247 100.025 21.6406 99.4249L28.7719 95.1536C32.6605 96.3696 34.9562 97.8529 34.9562 102.171V104.963H22.4119C21.5218 104.963 20.8005 105.684 20.8005 106.574C20.8005 107.464 21.5218 108.185 22.4119 108.185H35.5592C37.0036 108.185 38.1786 107.001 38.1786 105.545V102.171C38.1786 100.012 37.7139 98.3245 36.9501 96.9845L48.0098 85.4351C50.2726 87.236 53.1165 88.3132 56.2046 88.3132C59.2956 88.3132 62.1418 87.234 64.4056 85.4304L75.0546 96.4433C73.1674 97.99 71.821 100.305 71.821 103.986V107.36C71.821 108.816 72.9962 110 74.4404 110H87.528C88.4181 110 89.1393 109.279 89.1393 108.389C89.1393 107.499 88.4181 106.778 87.528 106.778H75.0436V103.986C75.0436 99.6677 77.3395 98.1848 81.2279 96.9686L88.3592 101.24C89.2751 101.84 90.0924 102.139 90.9107 102.139C91.7288 102.139 92.5474 101.84 93.4663 101.24L100.594 96.9684C104.482 98.1835 106.777 99.6673 106.777 103.985V106.777H94.8179C93.9278 106.777 93.2065 107.499 93.2065 108.389C93.2065 109.279 93.9278 110 94.8179 110H107.381C108.825 110 110 108.815 110 107.359V103.985C110 96.1649 103.925 94.5056 99.4886 93.2941ZM19.0895 61.3222C23.9166 61.4143 29.0729 64.8297 29.8833 72.085C29.173 71.7599 28.719 71.2877 28.2242 70.7731C27.4727 69.9915 26.4971 68.9768 24.768 68.9768C24.3538 68.9768 23.8962 69.035 23.3885 69.1687C22.7281 69.3414 22.1684 69.4933 21.685 69.6248C20.3195 69.996 19.6337 70.1821 19.0893 70.1821C18.5449 70.1821 17.8591 69.9958 16.4936 69.6248C16.0102 69.4935 15.4507 69.3414 14.792 69.1693C12.1574 68.4773 10.8825 69.805 9.95113 70.7746C9.45742 71.2883 9.00432 71.7601 8.29555 72.0848C9.10637 64.8295 14.2624 61.4143 19.0895 61.3222ZM8.18576 78.0235V75.498C10.3628 74.9918 11.4873 73.8269 12.2751 73.0071C13.0687 72.181 13.1704 72.0753 13.9754 72.2865C14.6242 72.456 15.1738 72.6053 15.6488 72.7344C17.2388 73.1665 18.115 73.4045 19.0895 73.4045C20.064 73.4045 20.94 73.1665 22.5302 72.7344C23.0053 72.6053 23.555 72.456 24.2062 72.2859C25.0063 72.0749 25.1079 72.1814 25.9016 73.0066C26.69 73.8267 27.8158 74.9918 29.9935 75.498V78.0235C29.9935 82.089 26.0951 87.1307 21.6507 88.8125C19.76 89.5288 18.4177 89.5286 16.523 88.8125C12.0813 87.13 8.18576 82.0883 8.18576 78.0235ZM19.9558 96.6775C19.9354 96.6897 19.9154 96.7022 19.8956 96.7153C19.1189 97.2283 19.0584 97.2288 18.2748 96.7134C18.2561 96.7011 18.237 96.6891 18.2177 96.6775L13.3897 93.7838C14.1818 93.2174 14.6929 92.4105 15.0352 91.6865C15.1508 91.7339 15.2659 91.7825 15.3822 91.8265C16.6994 92.3241 17.8941 92.5729 19.0887 92.5729C20.2834 92.5729 21.4773 92.3239 22.7913 91.8261C22.9084 91.7818 23.0244 91.7331 23.1408 91.6852C23.4824 92.4098 23.9931 93.2174 24.7863 93.784L19.9558 96.6775ZM56.4197 3.22282C61.2496 3.31499 66.4089 6.72993 67.2195 13.9861C66.5077 13.6604 66.0533 13.1868 65.5585 12.6708C64.8078 11.8879 63.8335 10.8719 62.1027 10.8719C61.6881 10.8719 61.23 10.9301 60.7215 11.0642C60.077 11.2341 59.5283 11.3841 59.0526 11.5141C57.6681 11.8926 56.9731 12.0828 56.4197 12.0828C55.8716 12.0828 55.179 11.8933 53.7982 11.5156C53.3214 11.3852 52.771 11.2346 52.123 11.0638C49.4905 10.3711 48.2157 11.701 47.2843 12.6712C46.7897 13.1864 46.3358 13.6593 45.6259 13.9848C46.4368 6.72993 51.5928 3.3152 56.4197 3.22282ZM45.5159 19.9241V17.3984C47.6947 16.8916 48.8204 15.7244 49.6091 14.9028C50.4023 14.0763 50.5044 13.9702 51.3023 14.1801C51.9385 14.3479 52.4795 14.4959 52.948 14.6239C54.5544 15.0631 55.4391 15.3052 56.4197 15.3052C57.4058 15.3052 58.2927 15.0626 59.9027 14.6224C60.3702 14.4946 60.9095 14.3472 61.5422 14.1803C62.3403 13.9702 62.4415 14.0763 63.2326 14.9013C64.0211 15.7235 65.1473 16.8918 67.3292 17.3986V19.9241C67.3292 23.9185 63.3536 29.0576 58.9864 30.7069C57.0939 31.4241 55.7517 31.4241 53.8572 30.7065C49.4916 29.0576 45.5159 23.9185 45.5159 19.9241ZM62.1193 35.6823L57.2922 38.5719C57.2718 38.5842 57.2518 38.5968 57.2318 38.6099C56.453 39.1245 56.3926 39.1245 55.6138 38.6099C55.5938 38.5966 55.5734 38.584 55.5528 38.5715L50.7244 35.6833C51.518 35.1164 52.0294 34.3083 52.3714 33.5815C52.4865 33.6288 52.6013 33.6769 52.7173 33.7207C54.0336 34.2194 55.2284 34.4686 56.4233 34.4686C57.6177 34.4686 58.812 34.2194 60.127 33.7212C60.2435 33.6771 60.3586 33.6288 60.4742 33.5813C60.816 34.3079 61.3267 35.1153 62.1193 35.6823ZM40.553 46.8569V44.0653C40.553 39.751 42.8478 38.2664 46.7354 37.0525L53.8688 41.3196C54.7864 41.92 55.6046 42.2204 56.4227 42.2204C57.241 42.2204 58.0592 41.92 58.9768 41.3193L66.1063 37.0515C69.9963 38.2656 72.2923 39.7497 72.2923 44.0653V46.8569H40.553ZM56.2048 85.0905C50.6301 85.0905 46.0945 80.4478 46.0945 74.7409C46.0945 69.0308 50.6299 64.3852 56.2048 64.3852C61.7798 64.3852 66.3154 69.0308 66.3154 74.7409C66.3154 80.4478 61.78 85.0905 56.2048 85.0905ZM90.9105 63.1369C95.7376 63.2291 100.894 66.6443 101.704 73.8993C100.995 73.5747 100.542 73.1029 100.049 72.5892C99.1173 71.6198 97.842 70.2919 95.2097 70.9835C94.5493 71.1562 93.9896 71.3081 93.5062 71.4396C92.1407 71.8108 91.4549 71.9969 90.9105 71.9969C90.3661 71.9969 89.6803 71.8106 88.3145 71.4394C87.8311 71.3081 87.2717 71.156 86.6138 70.9841C83.9835 70.2919 82.7071 71.619 81.7755 72.5879C81.2808 73.1025 80.8268 73.5747 80.1165 73.8997C80.9273 66.6447 86.0836 63.2293 90.9105 63.1369ZM80.007 79.8382V77.3128C82.1846 76.8066 83.3104 75.6415 84.0989 74.8214C84.8925 73.996 84.9943 73.8903 85.7966 74.1013C86.4452 74.2708 86.9948 74.4201 87.4696 74.5492C89.06 74.9813 89.9362 75.2193 90.9107 75.2193C91.8852 75.2193 92.7612 74.9813 94.3514 74.5492C94.8264 74.4201 95.3762 74.2708 96.0268 74.1006C96.8299 73.8899 96.9319 73.9958 97.7251 74.8216C98.5129 75.6417 99.6374 76.8066 101.814 77.3125V79.838C101.814 83.9029 97.9187 88.9446 93.4789 90.6266C91.5821 91.3431 90.2402 91.3433 88.3491 90.6268C83.9051 88.9453 80.007 83.9037 80.007 79.8382ZM91.7823 98.4925C91.763 98.5041 91.7439 98.5159 91.7252 98.5284C90.9421 99.0436 90.8815 99.0436 90.1044 98.5303C90.0846 98.5172 90.0644 98.5045 90.0442 98.4925L85.213 95.599C86.0067 95.0322 86.5174 94.2248 86.859 93.5006C86.9752 93.5483 87.091 93.5971 87.2079 93.6413C88.5223 94.1391 89.7162 94.3881 90.9109 94.3881C92.1054 94.3881 93.3013 94.1391 94.6191 93.6413C94.7349 93.5975 94.8496 93.5491 94.9648 93.5019C95.3071 94.2259 95.8182 95.0329 96.6101 95.5992L91.7823 98.4925Z" fill="white"/>
</svg>
