<svg width="26" height="25" viewBox="0 0 26 25" xmlns="http://www.w3.org/2000/svg">
<path fill-rule="evenodd" clip-rule="evenodd" d="M25.5 12.5C25.5 19.4031 19.9031 25 13 25C6.09687 25 0.5 19.4031 0.5 12.5C0.5 5.59687 6.09687 0 13 0C19.9031 0 25.5 5.59687 25.5 12.5ZM13.4479 9.22812C12.2323 9.73333 9.80208 10.7802 6.15833 12.3677C5.56667 12.6031 5.25625 12.8333 5.22812 13.0583C5.18021 13.4396 5.65729 13.5896 6.30521 13.7927C6.39375 13.8208 6.48542 13.849 6.57917 13.8802C7.21771 14.0875 8.07604 14.3302 8.52188 14.3396C8.92708 14.3479 9.37917 14.1812 9.87813 13.8396C13.2823 11.5406 15.0396 10.3792 15.15 10.3542C15.2281 10.3365 15.3365 10.3135 15.4094 10.3792C15.4823 10.4437 15.475 10.5667 15.4677 10.6C15.4198 10.801 13.551 12.5396 12.5823 13.4396C12.2802 13.7198 12.0667 13.9187 12.0229 13.9646C11.925 14.0656 11.825 14.1625 11.7292 14.2552C11.1354 14.826 10.6917 15.2552 11.7542 15.9552C12.2646 16.2917 12.6729 16.5698 13.0802 16.8469C13.525 17.15 13.9688 17.4521 14.5437 17.8292C14.6896 17.925 14.8292 18.024 14.9656 18.1208C15.4833 18.4906 15.949 18.8219 16.524 18.7698C16.8573 18.7385 17.2031 18.425 17.3781 17.4885C17.7917 15.274 18.6062 10.4781 18.7948 8.50104C18.8063 8.33689 18.7993 8.17197 18.774 8.00937C18.7588 7.87805 18.6949 7.75722 18.5948 7.67083C18.4458 7.54896 18.2146 7.52292 18.1104 7.525C17.6406 7.53333 16.9198 7.78437 13.4479 9.22812Z"/>
</svg>
