<svg width="17" height="20" viewBox="0 0 17 20" fill="none" xmlns="http://www.w3.org/2000/svg">
<path d="M13.7529 12C14.0484 12 14.341 12.0582 14.614 12.1713C14.887 12.2843 15.135 12.4501 15.3439 12.659C15.5529 12.8679 15.7186 13.116 15.8317 13.389C15.9447 13.6619 16.0029 13.9545 16.0029 14.25V15.155C16.0031 15.6956 15.8863 16.2297 15.6607 16.721C15.4352 17.2122 15.106 17.6488 14.6959 18.001C13.1299 19.345 10.8899 20 7.99993 20C5.10993 20 2.87193 19.344 1.30893 18C0.899392 17.6481 0.570683 17.2119 0.345281 16.7212C0.119879 16.2305 0.00309973 15.697 0.00292969 15.157V14.249C0.00319483 13.6524 0.240365 13.0804 0.662293 12.6587C1.08422 12.2369 1.65637 12 2.25293 12H13.7529ZM7.89793 0.0079999L7.99993 0C8.18117 7.6429e-06 8.35627 0.0656426 8.49286 0.184767C8.62945 0.303891 8.71828 0.468446 8.74293 0.648L8.74993 0.75V1.5H12.2499C12.8467 1.5 13.419 1.73705 13.8409 2.15901C14.2629 2.58097 14.4999 3.15326 14.4999 3.75V8.255C14.4999 8.85174 14.2629 9.42403 13.8409 9.84599C13.419 10.2679 12.8467 10.505 12.2499 10.505H3.74993C3.15319 10.505 2.5809 10.2679 2.15894 9.84599C1.73698 9.42403 1.49993 8.85174 1.49993 8.255V3.75C1.49993 3.15326 1.73698 2.58097 2.15894 2.15901C2.5809 1.73705 3.15319 1.5 3.74993 1.5H7.24993V0.751C7.24994 0.569762 7.31557 0.394658 7.4347 0.25807C7.55382 0.121481 7.71838 0.0326482 7.89793 0.0079999L7.99993 0L7.89793 0.00699997V0.0079999ZM5.74993 4.5C5.41841 4.5 5.10047 4.6317 4.86605 4.86612C4.63163 5.10054 4.49993 5.41848 4.49993 5.75C4.49993 6.08152 4.63163 6.39946 4.86605 6.63388C5.10047 6.8683 5.41841 7 5.74993 7C6.08145 7 6.39939 6.8683 6.63381 6.63388C6.86823 6.39946 6.99993 6.08152 6.99993 5.75C6.99993 5.41848 6.86823 5.10054 6.63381 4.86612C6.39939 4.6317 6.08145 4.5 5.74993 4.5ZM10.2429 4.5C10.0759 4.49527 9.90956 4.5241 9.75383 4.58476C9.5981 4.64543 9.45612 4.73671 9.33628 4.8532C9.21645 4.9697 9.12119 5.10904 9.05614 5.26299C8.99109 5.41694 8.95758 5.58237 8.95758 5.7495C8.95758 5.91663 8.99109 6.08206 9.05614 6.23601C9.12119 6.38996 9.21645 6.5293 9.33628 6.64579C9.45612 6.76229 9.5981 6.85357 9.75383 6.91424C9.90956 6.9749 10.0759 7.00373 10.2429 6.999C10.5682 6.9898 10.8771 6.85412 11.1039 6.6208C11.3307 6.38747 11.4576 6.0749 11.4576 5.7495C11.4576 5.4241 11.3307 5.11153 11.1039 4.8782C10.8771 4.64488 10.5682 4.5092 10.2429 4.5Z" fill="white"/>
</svg>
