<svg width="25" height="21" viewBox="0 0 25 21" xmlns="http://www.w3.org/2000/svg">
<path d="M24.6282 3.14305C23.7584 3.52847 22.824 3.78889 21.8417 3.90659C22.8552 3.30013 23.6135 2.34562 23.975 1.22118C23.0228 1.78679 21.9806 2.18492 20.8938 2.39826C20.1629 1.61791 19.1949 1.10068 18.14 0.92688C17.085 0.753076 16.0022 0.932419 15.0597 1.43707C14.1171 1.94171 13.3675 2.74343 12.9273 3.71774C12.487 4.69206 12.3808 5.78446 12.625 6.82535C10.6955 6.72847 8.80798 6.22696 7.08485 5.35337C5.36172 4.47978 3.84153 3.25364 2.62295 1.75451C2.20628 2.47326 1.9667 3.3066 1.9667 4.1941C1.96623 4.99305 2.16298 5.77976 2.53949 6.48444C2.916 7.18912 3.46062 7.78997 4.12503 8.23368C3.35449 8.20916 2.60094 8.00095 1.92712 7.62639V7.68889C1.92704 8.80945 2.31465 9.89553 3.02418 10.7628C3.73371 11.6302 4.72146 12.2253 5.81982 12.4472C5.10502 12.6407 4.35559 12.6692 3.62816 12.5306C3.93805 13.4947 4.54169 14.3379 5.35458 14.9419C6.16747 15.546 7.1489 15.8807 8.16149 15.8993C6.44257 17.2487 4.31971 17.9806 2.13441 17.9774C1.7473 17.9775 1.36053 17.9549 0.976074 17.9097C3.19428 19.3359 5.77643 20.0929 8.41357 20.0899C17.3407 20.0899 22.2209 12.6962 22.2209 6.28368C22.2209 6.07535 22.2157 5.86493 22.2063 5.65659C23.1555 4.97011 23.9749 4.12003 24.6261 3.14618L24.6282 3.14305Z"/>
</svg>
