<svg width="47" height="45" viewBox="0 0 47 45" fill="none" xmlns="http://www.w3.org/2000/svg">
<path d="M38.6772 45H8.32276C3.72052 45 0 41.3465 0 36.8271V8.17292C0 3.65354 3.72052 0 8.32276 0H38.6772C43.2795 0 47 3.65354 47 8.17292V36.8271C47 41.3465 43.2795 45 38.6772 45Z" fill="#FF26BE"/>
<path d="M37.9328 43.0764H9.06726C5.15122 43.0764 1.95898 39.9417 1.95898 36.0961V8.90414C1.95898 5.0586 5.15122 1.92383 9.06726 1.92383H37.914C41.8507 1.92383 45.0223 5.0586 45.0223 8.90414V36.0777C45.0411 39.9417 41.8488 43.0764 37.9328 43.0764Z" fill="#2E001F"/>
<path d="M18.584 21.0571L24.0679 31.4029C24.1657 31.5562 24.1074 31.7112 23.9495 31.7112H20.541C20.3248 31.7112 20.2271 31.654 20.1293 31.462C18.8754 28.9235 17.6026 26.3851 16.2904 23.6546H16.2509C15.0759 26.2319 13.7824 28.9439 12.5304 31.4823C12.4326 31.6355 12.3348 31.6946 12.1769 31.6946H8.94896C8.75344 31.6946 8.73276 31.5414 8.8324 31.4251L14.1979 21.3857L9.00912 11.2318C8.89068 11.0786 9.00912 10.9623 9.12568 10.9623H12.4946C12.6902 10.9623 12.7691 11.0011 12.8462 11.1746C14.0795 13.7131 15.3334 16.3291 16.5084 18.886H16.5479C17.6834 16.3475 18.9374 13.7131 20.1519 11.1931C20.2496 11.0398 20.3079 10.9438 20.5053 10.9438H23.6581C23.8141 10.9438 23.8743 11.0602 23.7765 11.2134L18.584 21.0571ZM25.0286 24.1919C25.0286 19.7112 28.0648 16.2109 32.8814 16.2109C33.2931 16.2109 33.5074 16.2109 33.9003 16.2497V11.1543C33.9003 11.038 33.9981 10.9623 34.0958 10.9623H37.1903C37.3464 10.9623 37.3858 11.0195 37.3858 11.1155V28.7703C37.3858 29.2891 37.3859 29.9426 37.4836 30.6552C37.4836 30.7715 37.4441 30.8085 37.3276 30.8675C35.6826 31.6374 33.9586 31.9826 32.3136 31.9826C28.0629 31.9992 25.0267 29.4239 25.0286 24.1919ZM33.8984 19.27C33.624 19.1537 33.2329 19.078 32.7629 19.078C30.2945 19.078 28.5724 20.9426 28.5724 24.0405C28.5724 27.5795 30.3358 29.0029 32.5486 29.0029C33.0186 29.0029 33.5281 28.9457 33.9003 28.7906V19.27H33.8984Z" fill="#FFD9F2"/>
</svg>
