<svg width="204" height="120" viewBox="0 0 204 120" fill="none" xmlns="http://www.w3.org/2000/svg">
<path d="M0 10.9097C0 8.14824 2.23858 5.90966 5 5.90966H93.7982C95.201 5.90966 96.5394 5.32029 97.4866 4.28541L101 0.446565C101.561 -0.0844046 102.439 -0.0844046 103 0.446565L106.513 4.28541C107.461 5.3203 108.799 5.90966 110.202 5.90966H199C201.761 5.90966 204 8.14824 204 10.9097V114.497C204 117.259 201.761 119.497 199 119.497H5C2.23857 119.497 0 117.259 0 114.497V10.9097Z" fill="black"/>
<path d="M0.5 10.9097C0.5 8.42438 2.51472 6.40966 5 6.40966H93.7982C95.3413 6.40966 96.8135 5.76136 97.8554 4.62298L101.355 0.798725C101.72 0.464876 102.28 0.464875 102.645 0.798723L106.145 4.62298C107.186 5.76136 108.659 6.40966 110.202 6.40966H199C201.485 6.40966 203.5 8.42438 203.5 10.9097V114.497C203.5 116.983 201.485 118.997 199 118.997H5C2.51472 118.997 0.5 116.983 0.5 114.497V10.9097Z" stroke="white" stroke-opacity="0.5"/>
</svg>
